<svg xmlns="http://www.w3.org/2000/svg" xmlns:xlink="http://www.w3.org/1999/xlink" width="118" height="118" viewBox="0 0 118 118">
  <defs>
    <filter id="Ellipse_12115" x="0" y="0" width="118" height="118" filterUnits="userSpaceOnUse">
      <feOffset dy="3" input="SourceAlpha"/>
      <feGaussianBlur stdDeviation="3" result="blur"/>
      <feFlood flood-opacity="0.161"/>
      <feComposite operator="in" in2="blur"/>
      <feComposite in="SourceGraphic"/>
    </filter>
    <clipPath id="clip-path">
      <rect id="Rectangle_410408" data-name="Rectangle 410408" width="58.976" height="58.976" fill="none"/>
    </clipPath>
  </defs>
  <g id="Group_1187027" data-name="Group 1187027" transform="translate(9 6)">
    <g id="Group_1181949" data-name="Group 1181949">
      <g transform="matrix(1, 0, 0, 1, -9, -6)" filter="url(#Ellipse_12115)">
        <g id="Ellipse_12115-2" data-name="Ellipse 12115" transform="translate(9 6)" fill="#f7f4f3" stroke="#344b50" stroke-width="1.5">
          <circle cx="50" cy="50" r="50" stroke="none"/>
          <circle cx="50" cy="50" r="49.25" fill="none"/>
        </g>
      </g>
    </g>
    <g id="Group_1187034" data-name="Group 1187034" transform="translate(20.512 20.513)">
      <g id="Group_1187033" data-name="Group 1187033" clip-path="url(#clip-path)">
        <path id="Path_1264414" data-name="Path 1264414" d="M10.649,59.137H8.809c-.057-.038-.11-.1-.17-.11a9.054,9.054,0,1,1,3.42-17.754,9.613,9.613,0,0,1,3.445,1.7l2.343-2.346a16.113,16.113,0,0,1-4.021-9.765h-2.3A5.371,5.371,0,0,1,5.745,35.21a5.3,5.3,0,0,1-.676-10.43,5.176,5.176,0,0,1,3.673.466,5.319,5.319,0,0,1,2.782,3.768h2.3A16.174,16.174,0,0,1,17.9,19.168L15.513,16.79A9.069,9.069,0,0,1,4.207,2.671a9.028,9.028,0,0,1,11.949-.312A8.766,8.766,0,0,1,19.347,8.2a8.871,8.871,0,0,1-2.371,7.3l2.3,2.311a16.13,16.13,0,0,1,9.766-4.028V11.479a5.347,5.347,0,0,1-4.351-5.721,5.3,5.3,0,0,1,10.436-.724,5.179,5.179,0,0,1-.5,3.722,5.343,5.343,0,0,1-3.737,2.73v2.3a16.077,16.077,0,0,1,9.723,3.971l2.338-2.249A9.13,9.13,0,1,1,44.486,16.8L42.1,19.118c.634.93,1.289,1.846,1.9,2.793.393.613.319.888-.223,1.387a.947.947,0,0,1-1.28-.517A14.377,14.377,0,0,0,30.2,15.561a25.985,25.985,0,0,0-2.905.224,14.4,14.4,0,0,0-10.221,20.6,14.173,14.173,0,0,0,2.967,4,4.782,4.782,0,0,1,3.376-4.042c.708-.276,1.46-.44,2.178-.693a3.971,3.971,0,0,0,.721-.421c-.834-.9-1.631-1.671-2.323-2.528-1.677-2.074-1.479-4.54-1.324-6.971a7.621,7.621,0,0,1,1.045-3.362c.388-.668.673-.771,1.414-.5a.986.986,0,0,1,.106,1.351,3.854,3.854,0,0,0-.419.877c-.162.5-.275,1.021-.409,1.532a.7.7,0,0,0,.5-.216,2.944,2.944,0,0,1,3.652-.909,4.72,4.72,0,0,0,1.957.219,13,13,0,0,0,2.1-.529c1.262-.14,1.946.858,2.847,1.555a5.527,5.527,0,0,0-5.259-5.266l.009.006-.238-.054a15.193,15.193,0,0,0-2.05.438,1.265,1.265,0,0,1-1.418-.194c-.185-.847-.063-1.187.771-1.428a9.977,9.977,0,0,1,2.843-.542,7.184,7.184,0,0,1,6.658,4.848,14.439,14.439,0,0,1,.564,4.811,6.764,6.764,0,0,1-1.5,4.463c-.644.82-1.422,1.534-2.231,2.391a3.491,3.491,0,0,0,.784.434,11.961,11.961,0,0,1,3.737,1.522,4.74,4.74,0,0,1,1.752,3.22,13.939,13.939,0,0,0,2.7-3.485,14.283,14.283,0,0,0,1.457-10.1c-.164-.775-.077-1.017.536-1.392.769-.008,1,.158,1.143.9.168.893.3,1.792.448,2.673h2.265a5.3,5.3,0,1,1,5.956,6.179,4.979,4.979,0,0,1-3.515-.733,5.328,5.328,0,0,1-2.454-3.575H46.109a16.2,16.2,0,0,1-4.057,9.82l2.38,2.337c-.043.014-.022.012-.008,0,.139-.1.276-.206.416-.305a8.764,8.764,0,0,1,6.461-1.6,9.071,9.071,0,0,1,7.785,9.894,9.19,9.19,0,0,1-6.781,7.868c-.353.086-.707.169-1.061.254h-2.53a1.589,1.589,0,0,0-.281-.125,9.09,9.09,0,0,1-7.405-9.242,8.876,8.876,0,0,1,2.031-5.386l-2.4-2.323A16.139,16.139,0,0,1,30.9,46.089V48.4a5.3,5.3,0,1,1-6.087,6.427,5.183,5.183,0,0,1,.5-3.722,5.339,5.339,0,0,1,3.732-2.723v-2.3a16.138,16.138,0,0,1-9.775-4.024l-2.342,2.345a9.264,9.264,0,0,1,1.988,5.205A9.073,9.073,0,0,1,12.175,58.8c-.5.134-1.017.227-1.525.338M50.937,46.443l-.151-.052A2.5,2.5,0,0,0,48,47.327a2.577,2.577,0,0,0,0,3.043,2.5,2.5,0,0,0,2.782.935l.153-.047-.015-.026.021.022a2.548,2.548,0,0,0-.006-4.81l-.028.048.027-.049m-40.054.046-.233-.1A2.521,2.521,0,0,0,7.8,47.25a2.635,2.635,0,0,0-.054,3.042,2.488,2.488,0,0,0,2.912.931,2.52,2.52,0,0,0,.223-4.734ZM50.57,10.4l0,0a2.513,2.513,0,0,0-.127-4.728,2.48,2.48,0,0,0-2.9.816,2.549,2.549,0,0,0-.042,3.089,2.486,2.486,0,0,0,2.835.916l.244-.1m-39.215,0,0,0a2.514,2.514,0,0,0-.128-4.729,2.483,2.483,0,0,0-2.9.816,2.547,2.547,0,0,0-.042,3.089,2.487,2.487,0,0,0,2.834.917l.245-.1M27.538,36.476l-.432.411c.882.523,1.723,1.038,2.585,1.517a.688.688,0,0,0,.567-.007c.569-.307,1.113-.661,1.666-1l.89-.477-.8-1.026a5.22,5.22,0,0,1-4.125-.017l-.349.6M51.665,52.9a4.618,4.618,0,0,1-3.611-.221.6.6,0,0,0-.495.087,4.427,4.427,0,0,0-1.793,2.7.588.588,0,0,0,.317.746,7.172,7.172,0,0,0,7.345.361,6.159,6.159,0,0,0,.781-.47.587.587,0,0,0,.206-.453A4.48,4.48,0,0,0,52.943,53c-.425-.385-.815-.519-1.278-.1M13.646,15.794c1.258-.6,1.275-.616.8-1.757a8.35,8.35,0,0,0-1.285-1.851A.7.7,0,0,0,12,12.1a4.656,4.656,0,0,1-3.664-.207.468.468,0,0,0-.4.018,4.143,4.143,0,0,0-1.889,2.932.655.655,0,0,0,.227.506,7.169,7.169,0,0,0,7.366.451M11.563,52.819a4.611,4.611,0,0,1-3.72-.17.671.671,0,0,0-.553.108A4.22,4.22,0,0,0,5.527,55.6a.582.582,0,0,0,.191.46,7.222,7.222,0,0,0,7.474.463c.136-.067.27-.141.41-.2.6-.241.69-.652.487-1.234a4.986,4.986,0,0,0-1.526-2.245.658.658,0,0,0-1-.024M52.869,15.792c1.134-.514,1.281-.721.806-1.727A10.345,10.345,0,0,0,52.388,12.2a.706.706,0,0,0-1.163-.108,4.669,4.669,0,0,1-3.668-.2.467.467,0,0,0-.4.015,4.133,4.133,0,0,0-1.89,2.934.659.659,0,0,0,.226.508,7.182,7.182,0,0,0,7.375.446m-22.8,34.284a8.187,8.187,0,0,0-.959.1,3.586,3.586,0,0,0-2.7,3.636,3.5,3.5,0,0,0,2.981,3.267,3.457,3.457,0,0,0,.608.1,3.609,3.609,0,0,0,3.532-3.553,3.57,3.57,0,0,0-3.459-3.547M53.66,26.39c-.264.029-.531.041-.79.091a3.539,3.539,0,1,0,.79-.091M29.969,2.709c-.226.025-.454.038-.677.078a3.507,3.507,0,1,0,.677-.078M6.284,26.389c-.263.031-.53.043-.789.095a3.539,3.539,0,1,0,.789-.095m42.433,16.55a2.259,2.259,0,0,0-.337.037,7.305,7.305,0,0,0-5.611,6.784,7.007,7.007,0,0,0,1.466,4.712,6.539,6.539,0,0,1,2.291-3.128,4.5,4.5,0,0,1-.508-3.916c.674-1.911,2.3-2.92,4.643-2.886a.917.917,0,0,0,.2.092,4.092,4.092,0,0,1,3.467,4.129,16.741,16.741,0,0,1-.536,2.71,6.248,6.248,0,0,1,2.123,2.982c.141-.182.267-.32.365-.476a7.324,7.324,0,0,0-3.062-10.492,6.886,6.886,0,0,0-4.505-.55M8.431,42.914a3.727,3.727,0,0,0-.451.068,7.342,7.342,0,0,0-5.361,8.18,6.679,6.679,0,0,0,1.4,3.263,6.54,6.54,0,0,1,2.289-3.142c-.1-.167-.176-.3-.247-.429a4.281,4.281,0,0,1,2.48-6.128,10.046,10.046,0,0,1,1.979-.206,3.885,3.885,0,0,0,.38.123,4.332,4.332,0,0,1,3.222,3.726A4.806,4.806,0,0,1,13.4,51.3a6.588,6.588,0,0,1,2.289,3.1,3.894,3.894,0,0,0,.3-.346,7.014,7.014,0,0,0,1.2-4.273,7.167,7.167,0,0,0-3.509-5.955,6.648,6.648,0,0,0-5.241-.914m2.3-39.177a1.04,1.04,0,0,0,.212.079,4.223,4.223,0,0,1,3.616,5.093,13.263,13.263,0,0,1-.594,1.695,6.528,6.528,0,0,1,2.245,3.056c.124-.146.205-.228.269-.321a7.283,7.283,0,0,0-.752-8.981A6.98,6.98,0,0,0,8.761,2.2a3.3,3.3,0,0,0-.395.064,7.361,7.361,0,0,0-5.29,7.754,6.779,6.779,0,0,0,1.452,3.657,6.457,6.457,0,0,1,2.157-3.029,12.721,12.721,0,0,1-.61-2.394c-.137-2.6,1.877-4.511,4.651-4.512M47.975,2.2c-.149.029-.3.044-.447.088a7.327,7.327,0,0,0-5.237,7.732,6.784,6.784,0,0,0,1.449,3.657A6.471,6.471,0,0,1,45.9,10.64,12.538,12.538,0,0,1,45.29,8.3c-.16-2.631,1.86-4.567,4.656-4.564a.669.669,0,0,0,.155.069,4.254,4.254,0,0,1,3.66,5.221,10.723,10.723,0,0,1-.6,1.562,6.611,6.611,0,0,1,2.271,3.093c.162-.233.278-.382.376-.543a7.275,7.275,0,0,0-1.613-9.5A6.883,6.883,0,0,0,47.975,2.2M29.264,34.482a6.836,6.836,0,0,0,1.573-.052,6.572,6.572,0,0,0,4.739-6.8,4.678,4.678,0,0,1-2.268-1.446A1.27,1.27,0,0,0,32.973,26c-.052-.011-.113-.046-.156-.031a7.933,7.933,0,0,1-5.6.038.742.742,0,0,0-.556.155c-.749.534-1.479,1.094-2.318,1.722a6.567,6.567,0,0,0,4.919,6.6m4.842,3.726c-.96.548-1.932,1.075-2.876,1.65a2.228,2.228,0,0,1-2.524,0c-1.123-.687-2.267-1.341-3.408-2a.781.781,0,0,0-.508-.152c-1.731.535-3.084,1.244-3.026,3.573a.873.873,0,0,0,.452.827A14.365,14.365,0,0,0,30.43,44.34,13.34,13.34,0,0,0,36.41,42.8c.5-.279,1.007-.541,1.487-.847a.666.666,0,0,0,.252-.454,3.131,3.131,0,0,0-2.138-3.515,1.506,1.506,0,0,0-1.906.219" transform="translate(-0.531 -0.162)" fill="#0a0a0a"/>
        <path id="Path_1264416" data-name="Path 1264416" d="M28.548,135.288c.509-.112,1.022-.205,1.525-.338a9.073,9.073,0,0,0,6.739-9.187,9.265,9.265,0,0,0-1.988-5.205l2.342-2.345a16.136,16.136,0,0,0,9.775,4.025v2.3a5.339,5.339,0,0,0-3.732,2.723,5.182,5.182,0,0,0-.5,3.721,5.3,5.3,0,1,0,6.087-6.426v-2.315a16.139,16.139,0,0,0,9.763-4.027l2.4,2.322a8.876,8.876,0,0,0-2.031,5.386,9.09,9.09,0,0,0,7.405,9.242,1.565,1.565,0,0,1,.281.125Z" transform="translate(-18.429 -76.312)" fill="#fefefe"/>
        <path id="Path_1264417" data-name="Path 1264417" d="M51.937,49.753c-.74-.272-1.025-.169-1.414.5a7.617,7.617,0,0,0-1.045,3.362c-.155,2.43-.353,4.9,1.324,6.971.692.856,1.49,1.627,2.323,2.528a3.971,3.971,0,0,1-.721.421c-.718.252-1.47.416-2.178.693a4.782,4.782,0,0,0-3.376,4.042,14.185,14.185,0,0,1-2.967-4A14.4,14.4,0,0,1,54.1,43.669a25.992,25.992,0,0,1,2.905-.224,2.35,2.35,0,0,0,.5.408,14.853,14.853,0,0,1,7.453,6.9,15,15,0,0,1,1.583,9.7,13.787,13.787,0,0,1-1.607,4.617A11.957,11.957,0,0,0,61.2,63.542a3.492,3.492,0,0,1-.784-.434c.809-.857,1.587-1.571,2.231-2.391a6.766,6.766,0,0,0,1.5-4.463,14.446,14.446,0,0,0-.563-4.811,7.185,7.185,0,0,0-6.658-4.848,9.977,9.977,0,0,0-2.843.542c-.834.241-.956.581-.771,1.428l-1.382,1.188" transform="translate(-27.339 -28.046)" fill="#f5eeeb"/>
        <path id="Path_1264418" data-name="Path 1264418" d="M91.635,65.062a13.787,13.787,0,0,0,1.607-4.616,15,15,0,0,0-1.583-9.7,14.848,14.848,0,0,0-7.453-6.9,2.362,2.362,0,0,1-.5-.408A14.377,14.377,0,0,1,96,50.664a.947.947,0,0,0,1.28.517l.8,2.128c-.614.375-.7.617-.536,1.392A14.286,14.286,0,0,1,96.09,64.8a13.942,13.942,0,0,1-2.7,3.485,4.741,4.741,0,0,0-1.752-3.22" transform="translate(-54.037 -28.045)" fill="#e9d9d2"/>
        <path id="Path_1264419" data-name="Path 1264419" d="M74.547,111a13.341,13.341,0,0,1-5.98,1.535,14.365,14.365,0,0,1-8.215-2.233.873.873,0,0,1-.452-.827c-.058-2.328,1.294-3.038,3.026-3.573a.782.782,0,0,1,.508.152c1.141.657,2.285,1.31,3.408,2a2.228,2.228,0,0,0,2.524,0c.944-.575,1.916-1.1,2.876-1.65a3.344,3.344,0,0,1,1.7,1.537,6.636,6.636,0,0,1,.6,3.06" transform="translate(-38.667 -68.361)" fill="#e03246"/>
        <path id="Path_1264420" data-name="Path 1264420" d="M72.092,81.317a6.567,6.567,0,0,1-4.919-6.6c.839-.627,1.569-1.188,2.318-1.722a.739.739,0,0,1,.556-.155,7.935,7.935,0,0,0,5.6-.038c.043-.016.1.019.155.03,0,.458,0,.917-.012,1.375a14.613,14.613,0,0,1-.084,2.223,6.692,6.692,0,0,1-1.864,3.352,22.246,22.246,0,0,1-1.749,1.533" transform="translate(-43.359 -46.996)" fill="#ffddb3"/>
        <path id="Path_1264421" data-name="Path 1264421" d="M133.855,5.341a6.883,6.883,0,0,1,6.217,1.443,7.275,7.275,0,0,1,1.613,9.5c-.1.161-.214.31-.376.543a6.606,6.606,0,0,0-2.271-3.093,10.684,10.684,0,0,0,.6-1.562,4.254,4.254,0,0,0-3.66-5.221.663.663,0,0,1-.155-.069c.027-.075.1-.2.077-.218-.649-.492-1.157-1.207-2.048-1.322" transform="translate(-86.41 -3.305)" fill="#1863ad"/>
        <path id="Path_1264422" data-name="Path 1264422" d="M23.221,5.367a6.98,6.98,0,0,1,6.962,2.159,7.283,7.283,0,0,1,.752,8.981c-.063.094-.145.175-.269.321a6.524,6.524,0,0,0-2.245-3.056,13.191,13.191,0,0,0,.594-1.695A4.223,4.223,0,0,0,25.4,6.985a1.059,1.059,0,0,1-.212-.079c.045-.067.132-.189.128-.192-.662-.5-1.193-1.215-2.094-1.347" transform="translate(-14.99 -3.331)" fill="#1863ad"/>
        <path id="Path_1264423" data-name="Path 1264423" d="M22.29,120.265a6.648,6.648,0,0,1,5.241.914,7.167,7.167,0,0,1,3.509,5.955,7.011,7.011,0,0,1-1.2,4.273,3.786,3.786,0,0,1-.3.346,6.588,6.588,0,0,0-2.289-3.1,4.8,4.8,0,0,0,.729-2.929A4.332,4.332,0,0,0,24.763,122a3.913,3.913,0,0,1-.38-.123l-2.093-1.606" transform="translate(-14.389 -77.513)" fill="#1763ad"/>
        <path id="Path_1264424" data-name="Path 1264424" d="M135.951,120.4a6.883,6.883,0,0,1,4.5.55,7.324,7.324,0,0,1,3.062,10.492c-.1.156-.224.294-.365.476a6.246,6.246,0,0,0-2.122-2.982,16.7,16.7,0,0,0,.536-2.71,4.093,4.093,0,0,0-3.467-4.13.915.915,0,0,1-.2-.092l-1.944-1.6" transform="translate(-87.763 -77.62)" fill="#1863ad"/>
        <path id="Path_1264425" data-name="Path 1264425" d="M125.093,120.685l1.944,1.6c-2.346-.034-3.968.975-4.643,2.886a4.5,4.5,0,0,0,.508,3.916,6.541,6.541,0,0,0-2.291,3.128,7.01,7.01,0,0,1-1.466-4.712,7.307,7.307,0,0,1,5.611-6.785,2.264,2.264,0,0,1,.338-.037" transform="translate(-76.905 -77.908)" fill="#2a8ccd"/>
        <path id="Path_1264426" data-name="Path 1264426" d="M11.552,120.616l2.093,1.606a10.049,10.049,0,0,0-1.979.206,4.281,4.281,0,0,0-2.48,6.128c.071.133.151.262.248.429a6.54,6.54,0,0,0-2.29,3.142,6.679,6.679,0,0,1-1.4-3.263,7.342,7.342,0,0,1,5.361-8.18,3.72,3.72,0,0,1,.451-.068" transform="translate(-3.652 -77.864)" fill="#2b8cce"/>
        <path id="Path_1264427" data-name="Path 1264427" d="M12.8,5.743c.9.132,1.432.843,2.094,1.347,0,0-.083.125-.128.192-2.774,0-4.789,1.908-4.652,4.512a12.707,12.707,0,0,0,.61,2.394,6.454,6.454,0,0,0-2.157,3.029,6.777,6.777,0,0,1-1.453-3.656,7.362,7.362,0,0,1,5.29-7.754,3.3,3.3,0,0,1,.395-.065" transform="translate(-4.569 -3.707)" fill="#2b8cce"/>
        <path id="Path_1264428" data-name="Path 1264428" d="M123.438,5.743c.891.115,1.4.83,2.048,1.322.019.014-.049.143-.077.218-2.8,0-4.817,1.932-4.656,4.564a12.51,12.51,0,0,0,.614,2.339,6.469,6.469,0,0,0-2.164,3.033,6.784,6.784,0,0,1-1.449-3.657,7.326,7.326,0,0,1,5.237-7.732c.145-.043.3-.059.447-.088" transform="translate(-75.993 -3.707)" fill="#2b8cce"/>
        <path id="Path_1264429" data-name="Path 1264429" d="M9.622,81.081a3.541,3.541,0,0,1-.659-6.992c.259-.052.526-.064.789-.095a4.092,4.092,0,0,1,1.712,3.395,4.408,4.408,0,0,1-1.843,3.692" transform="translate(-3.998 -47.767)" fill="#7fb24b"/>
        <path id="Path_1264430" data-name="Path 1264430" d="M76.441,14.268a3.532,3.532,0,0,1-.558-7c.223-.04.452-.052.678-.078a4.265,4.265,0,0,1,1.348,5.157,12.888,12.888,0,0,1-1.467,1.924" transform="translate(-47.122 -4.64)" fill="#7fb24b"/>
        <path id="Path_1264431" data-name="Path 1264431" d="M143.162,81.082a3.541,3.541,0,0,1-.562-6.994c.26-.051.527-.062.791-.091a4.376,4.376,0,0,1-.229,7.086" transform="translate(-90.261 -47.768)" fill="#80b34b"/>
        <path id="Path_1264432" data-name="Path 1264432" d="M75.985,147.825A3.5,3.5,0,0,1,73,144.558a3.586,3.586,0,0,1,2.7-3.636,8.181,8.181,0,0,1,.959-.1c.1.112.2.227.312.336a4.342,4.342,0,0,1,.475,5.646c-.353.48-.692,1.1-1.468,1.022" transform="translate(-47.123 -90.908)" fill="#80b34b"/>
        <path id="Path_1264433" data-name="Path 1264433" d="M133.814,36.92a7.183,7.183,0,0,1-7.375-.446.658.658,0,0,1-.226-.508,4.133,4.133,0,0,1,1.889-2.935.469.469,0,0,1,.4-.014,4.668,4.668,0,0,0,3.668.2,6.527,6.527,0,0,1,1.644,3.7" transform="translate(-81.475 -21.29)" fill="#df3246"/>
        <path id="Path_1264434" data-name="Path 1264434" d="M21.755,151.9a7.223,7.223,0,0,1-7.475-.463.583.583,0,0,1-.191-.46,4.22,4.22,0,0,1,1.763-2.841.67.67,0,0,1,.553-.108,4.61,4.61,0,0,0,3.72.17,8.077,8.077,0,0,1,1.629,3.7" transform="translate(-9.094 -95.546)" fill="#df3246"/>
        <path id="Path_1264435" data-name="Path 1264435" d="M23.169,36.925a7.169,7.169,0,0,1-7.366-.451.652.652,0,0,1-.227-.505,4.144,4.144,0,0,1,1.888-2.932.467.467,0,0,1,.4-.018,4.658,4.658,0,0,0,3.664.207,6.488,6.488,0,0,1,1.643,3.7" transform="translate(-10.053 -21.292)" fill="#faa02d"/>
        <path id="Path_1264436" data-name="Path 1264436" d="M135.226,152.014a7.172,7.172,0,0,1-7.345-.361.588.588,0,0,1-.317-.746,4.427,4.427,0,0,1,1.793-2.7.6.6,0,0,1,.495-.087,4.62,4.62,0,0,0,3.611.221,2.684,2.684,0,0,1,.368.345,7.889,7.889,0,0,1,1.4,3.326" transform="translate(-82.329 -95.604)" fill="#faa02d"/>
        <path id="Path_1264437" data-name="Path 1264437" d="M68.082,58.63l1.382-1.188a1.265,1.265,0,0,0,1.417.193,15.191,15.191,0,0,1,2.05-.438l.238.054-.009-.006c.325.314.677.605.969.948a5.309,5.309,0,0,1,1.443,2.764,13,13,0,0,1-2.1.529,4.719,4.719,0,0,1-1.957-.219,2.944,2.944,0,0,0-3.652.909.7.7,0,0,1-.5.216c.134-.511.247-1.03.409-1.532a3.854,3.854,0,0,1,.419-.877.986.986,0,0,0-.106-1.351" transform="translate(-43.485 -36.924)" fill="#536e9b"/>
        <path id="Path_1264438" data-name="Path 1264438" d="M81.064,81.379a22.243,22.243,0,0,0,1.749-1.533A6.691,6.691,0,0,0,84.677,76.5a14.614,14.614,0,0,0,.084-2.223c.011-.458.008-.917.012-1.375a1.278,1.278,0,0,1,.334.188,4.684,4.684,0,0,0,2.268,1.446,6.571,6.571,0,0,1-4.739,6.8,6.856,6.856,0,0,1-1.573.053" transform="translate(-52.331 -47.059)" fill="#fbc491"/>
        <path id="Path_1264439" data-name="Path 1264439" d="M134.411,20.046a2.485,2.485,0,0,1-2.835-.916,2.548,2.548,0,0,1,.043-3.089,2.48,2.48,0,0,1,2.9-.816.975.975,0,0,0,.1.258,3.458,3.458,0,0,1,.448,3.552,9.937,9.937,0,0,1-.426.918l.005,0-.245.1" transform="translate(-84.616 -9.715)" fill="#ffddb2"/>
        <path id="Path_1264440" data-name="Path 1264440" d="M22.432,134.984a2.488,2.488,0,0,1-2.912-.931,2.635,2.635,0,0,1,.054-3.041,2.521,2.521,0,0,1,2.851-.863l.233.1h0a4.629,4.629,0,0,1,.193.519,6.434,6.434,0,0,1,.444,2.08,8.253,8.253,0,0,1-.861,2.136" transform="translate(-12.307 -83.924)" fill="#ffddb2"/>
        <path id="Path_1264441" data-name="Path 1264441" d="M23.774,20.048a2.486,2.486,0,0,1-2.834-.917,2.547,2.547,0,0,1,.042-3.089,2.483,2.483,0,0,1,2.9-.816.955.955,0,0,0,.1.258,3.457,3.457,0,0,1,.449,3.553,10.089,10.089,0,0,1-.425.919l.005,0-.245.1" transform="translate(-13.195 -9.716)" fill="#ffddb2"/>
        <path id="Path_1264442" data-name="Path 1264442" d="M135.812,135.131a2.5,2.5,0,0,1-2.782-.935,2.577,2.577,0,0,1,0-3.043,2.5,2.5,0,0,1,2.782-.937l.151.052-.027.049.029-.048a2.856,2.856,0,0,0,.151.291,3.28,3.28,0,0,1,.522,3.163c-.185.467-.442.9-.667,1.356l-.021-.022.015.026-.153.047" transform="translate(-85.557 -83.989)" fill="#ffddb2"/>
        <path id="Path_1264443" data-name="Path 1264443" d="M149.249,81.082A4.376,4.376,0,0,0,149.478,74a3.547,3.547,0,1,1-.229,7.086" transform="translate(-96.348 -47.768)" fill="#5da220"/>
        <path id="Path_1264444" data-name="Path 1264444" d="M81.428,147.825c.776.076,1.116-.542,1.468-1.022a4.342,4.342,0,0,0-.475-5.646c-.107-.108-.208-.224-.312-.336a3.57,3.57,0,0,1,3.459,3.547,3.609,3.609,0,0,1-3.532,3.553,3.454,3.454,0,0,1-.608-.1" transform="translate(-52.566 -90.908)" fill="#5da220"/>
        <path id="Path_1264445" data-name="Path 1264445" d="M82.717,14.268a12.888,12.888,0,0,0,1.467-1.924,4.265,4.265,0,0,0-1.348-5.157,3.542,3.542,0,1,1-.119,7.081" transform="translate(-53.398 -4.64)" fill="#5da220"/>
        <path id="Path_1264446" data-name="Path 1264446" d="M15.865,81.081a4.408,4.408,0,0,0,1.843-3.692A4.092,4.092,0,0,0,16,73.994a3.545,3.545,0,1,1-.13,7.087" transform="translate(-10.242 -47.767)" fill="#5da220"/>
        <path id="Path_1264447" data-name="Path 1264447" d="M97.029,111.11a6.636,6.636,0,0,0-.6-3.06,3.344,3.344,0,0,0-1.7-1.537,1.506,1.506,0,0,1,1.906-.219,3.132,3.132,0,0,1,2.138,3.515.666.666,0,0,1-.252.453c-.481.306-.989.568-1.487.847" transform="translate(-61.15 -68.467)" fill="#d60120"/>
        <path id="Path_1264448" data-name="Path 1264448" d="M86.134,61.041a5.308,5.308,0,0,0-1.443-2.763c-.292-.342-.644-.633-.969-.948A5.527,5.527,0,0,1,88.981,62.6c-.9-.7-1.585-1.695-2.847-1.555" transform="translate(-54.047 -37.008)" fill="#30558a"/>
        <path id="Path_1264449" data-name="Path 1264449" d="M79.793,103.377c-.553.337-1.1.691-1.666,1a.69.69,0,0,1-.567.007c-.862-.479-1.7-.994-2.585-1.517l.432-.411a5.776,5.776,0,0,0,.664.159,8.555,8.555,0,0,0,2.407.215c.681-.12,1.04-.035,1.315.55" transform="translate(-48.4 -66.139)" fill="#f9c18f"/>
        <path id="Path_1264450" data-name="Path 1264450" d="M146.027,152a7.89,7.89,0,0,0-1.4-3.326,2.686,2.686,0,0,0-.368-.345c.463-.418.853-.283,1.278.1a4.482,4.482,0,0,1,1.472,2.647.587.587,0,0,1-.206.453,6.158,6.158,0,0,1-.781.47" transform="translate(-93.13 -95.586)" fill="#f18104"/>
        <path id="Path_1264451" data-name="Path 1264451" d="M34.012,36.889a6.488,6.488,0,0,0-1.643-3.7.7.7,0,0,1,1.157.091,8.366,8.366,0,0,1,1.285,1.851c.476,1.141.459,1.156-.8,1.757" transform="translate(-20.896 -21.257)" fill="#f18104"/>
        <path id="Path_1264452" data-name="Path 1264452" d="M144.668,36.891a6.527,6.527,0,0,0-1.644-3.7.706.706,0,0,1,1.164.109,10.393,10.393,0,0,1,1.287,1.863c.475,1.006.329,1.213-.806,1.727" transform="translate(-92.329 -21.261)" fill="#d50020"/>
        <path id="Path_1264453" data-name="Path 1264453" d="M32.756,151.863a8.077,8.077,0,0,0-1.629-3.7.658.658,0,0,1,1,.024,4.983,4.983,0,0,1,1.526,2.245c.2.582.114.993-.487,1.234-.141.056-.274.132-.41.2" transform="translate(-20.094 -95.504)" fill="#d50020"/>
        <path id="Path_1264454" data-name="Path 1264454" d="M80.581,102.29c-.275-.585-.634-.67-1.315-.55a8.555,8.555,0,0,1-2.407-.215,5.783,5.783,0,0,1-.664-.159l.349-.6a5.218,5.218,0,0,0,4.125.017l.8,1.026-.89.478" transform="translate(-49.188 -65.052)" fill="#f3a66e"/>
        <path id="Path_1264455" data-name="Path 1264455" d="M30.293,20.276a10.038,10.038,0,0,0,.425-.918,3.456,3.456,0,0,0-.449-3.553.963.963,0,0,1-.1-.258,2.514,2.514,0,0,1,.128,4.729" transform="translate(-19.473 -10.036)" fill="#f7c08f"/>
        <path id="Path_1264456" data-name="Path 1264456" d="M140.93,20.276a9.949,9.949,0,0,0,.426-.918,3.458,3.458,0,0,0-.448-3.552.975.975,0,0,1-.1-.258,2.513,2.513,0,0,1,.127,4.728" transform="translate(-90.896 -10.037)" fill="#f7c08f"/>
        <path id="Path_1264457" data-name="Path 1264457" d="M28.568,135.432a8.253,8.253,0,0,0,.861-2.136,6.434,6.434,0,0,0-.444-2.08,4.631,4.631,0,0,0-.193-.519,2.52,2.52,0,0,1-.223,4.734" transform="translate(-18.442 -84.372)" fill="#f8c18f"/>
        <path id="Path_1264458" data-name="Path 1264458" d="M142.22,135.383c.224-.451.482-.889.667-1.356a3.28,3.28,0,0,0-.522-3.163,3.008,3.008,0,0,1-.151-.291,2.548,2.548,0,0,1,.006,4.81" transform="translate(-91.807 -84.292)" fill="#f8c18f"/>
        <path id="Path_1264459" data-name="Path 1264459" d="M83.314,57.25l-.238-.054.238.054" transform="translate(-53.63 -36.923)" fill="#30558a"/>
        <path id="Path_1264460" data-name="Path 1264460" d="M140.486,28.973l.245-.1-.245.1" transform="translate(-90.691 -18.642)" fill="#f7c08f"/>
        <path id="Path_1264461" data-name="Path 1264461" d="M29.848,28.976l.245-.1-.245.1" transform="translate(-19.268 -18.644)" fill="#f7c08f"/>
        <path id="Path_1264462" data-name="Path 1264462" d="M28.78,130.516l-.233-.1.233.1" transform="translate(-18.429 -84.189)" fill="#f8c18f"/>
        <path id="Path_1264463" data-name="Path 1264463" d="M141.936,130.475l-.151-.052.151.052" transform="translate(-91.53 -84.195)" fill="#f8c18f"/>
        <path id="Path_1264464" data-name="Path 1264464" d="M141.783,144.2l.153-.047-.153.047" transform="translate(-91.528 -93.06)" fill="#f8c18f"/>
      </g>
    </g>
  </g>
</svg>
