<svg xmlns="http://www.w3.org/2000/svg" xmlns:xlink="http://www.w3.org/1999/xlink" width="98" height="98" viewBox="0 0 98 98">
  <defs>
    <filter id="Path_874925" x="0" y="0" width="98" height="98" filterUnits="userSpaceOnUse">
      <feOffset dy="3" input="SourceAlpha"/>
      <feGaussianBlur stdDeviation="3" result="blur"/>
      <feFlood flood-opacity="0.161"/>
      <feComposite operator="in" in2="blur"/>
      <feComposite in="SourceGraphic"/>
    </filter>
  </defs>
  <g id="Group_1187514" data-name="Group 1187514" transform="translate(-1013.051 -1387)">
    <g id="Group_1187466" data-name="Group 1187466" transform="translate(737.051 -4704.407)">
      <g id="Group_1181903" data-name="Group 1181903">
        <g id="Group_1181438" data-name="Group 1181438">
          <g id="Group_1111314" data-name="Group 1111314" transform="translate(-734.73 3020.407)">
            <g transform="matrix(1, 0, 0, 1, 1010.73, 3071)" filter="url(#Path_874925)">
              <g id="Path_874925-2" data-name="Path 874925" transform="translate(9 6)" fill="#f6dfb0">
                <path d="M 39.99997329711914 78.50040435791016 C 34.80184936523438 78.50040435791016 29.76000595092773 77.48268127441406 25.01450729370117 75.47550201416016 C 20.43013954162598 73.53648376464844 16.3126392364502 70.76027679443359 12.7763843536377 67.22402191162109 C 9.240128517150879 63.68776702880859 6.463928699493408 59.57027053833008 4.524906635284424 54.98590087890625 C 2.517728805541992 50.24040222167969 1.500006675720215 45.19855880737305 1.500006675720215 40.00043487548828 C 1.500006675720215 34.80185699462891 2.517728805541992 29.76001358032227 4.524906635284424 25.01451301574707 C 6.463928699493408 20.43013572692871 9.240128517150879 16.31263542175293 12.7763843536377 12.77637958526611 C 16.3126392364502 9.240124702453613 20.43013954162598 6.463935375213623 25.01450729370117 4.52490234375 C 29.76000595092773 2.517724514007568 34.80184936523438 1.500002145767212 39.99997329711914 1.500002145767212 C 45.19809722900391 1.500002145767212 50.23994064331055 2.517724514007568 54.98543930053711 4.52490234375 C 59.56981658935547 6.463935375213623 63.68731689453125 9.240124702453613 67.22357177734375 12.77637958526611 C 70.75982666015625 16.31263542175293 73.53601837158203 20.43013572692871 75.47505187988281 25.01451301574707 C 77.48223114013672 29.76001358032227 78.49995422363281 34.80185699462891 78.49995422363281 39.99998092651367 C 78.49995422363281 45.19855880737305 77.48223114013672 50.24040222167969 75.47505187988281 54.98590087890625 C 73.53601837158203 59.57027053833008 70.75982666015625 63.68776702880859 67.22357177734375 67.22402191162109 C 63.68731689453125 70.76027679443359 59.56981658935547 73.53648376464844 54.98543930053711 75.47550201416016 C 50.23994064331055 77.48268127441406 45.19809722900391 78.50040435791016 39.99997329711914 78.50040435791016 Z" stroke="none"/>
                <path d="M 39.99997329711914 3 C 35.00369262695312 3 30.15843963623047 3.977851867675781 25.59883880615234 5.906417846679688 C 21.19326782226562 7.769813537597656 17.23602676391602 10.43805694580078 13.83704376220703 13.83704376220703 C 10.43805694580078 17.23601531982422 7.769813537597656 21.19325637817383 5.906410217285156 25.59882736206055 C 3.977851867675781 30.15844345092773 3 35.00368118286133 3 40.00042724609375 C 3 44.99672317504883 3.977851867675781 49.84196472167969 5.906410217285156 54.40157318115234 C 7.769813537597656 58.80714797973633 10.43805694580078 62.76438903808594 13.83704376220703 66.16336059570312 C 17.23602676391602 69.56234741210938 21.19326782226562 72.2305908203125 25.59883880615234 74.09398651123047 C 30.15843963623047 76.02255249023438 35.00369262695312 77.00040435791016 39.99997329711914 77.00040435791016 C 44.99625396728516 77.00040435791016 49.84150695800781 76.02255249023438 54.40110778808594 74.09398651123047 C 58.80667877197266 72.2305908203125 62.76391983032227 69.56234741210938 66.16290283203125 66.16336059570312 C 69.5618896484375 62.76438903808594 72.23013305664062 58.80714797973633 74.09353637695312 54.40157318115234 C 76.0220947265625 49.84196472167969 76.99994659423828 44.99672317504883 76.99994659423828 39.99997711181641 C 76.99994659423828 35.00368118286133 76.0220947265625 30.15844345092773 74.09353637695312 25.59882736206055 C 72.23013305664062 21.19325637817383 69.5618896484375 17.23601531982422 66.16290283203125 13.83704376220703 C 62.76391983032227 10.43805694580078 58.80667877197266 7.769813537597656 54.40110778808594 5.906417846679688 C 49.84150695800781 3.977851867675781 44.99625396728516 3 39.99997329711914 3 M 39.99997329711914 0 C 62.09134674072266 0 79.99994659423828 17.90858840942383 79.99994659423828 39.99997711181641 L 79.99994659423828 40.00042724609375 C 79.99994659423828 62.09181594848633 62.09134674072266 80.00040435791016 39.99997329711914 80.00040435791016 C 17.90859985351562 80.00040435791016 0 62.09181594848633 0 40.00042724609375 L 0 39.99997711181641 C 0 17.90858840942383 17.90859985351562 0 39.99997329711914 0 Z" stroke="none" fill="#fff"/>
              </g>
            </g>
          </g>
        </g>
      </g>
    </g>
    <g id="Group_1187505" data-name="Group 1187505" transform="translate(1036.724 1407.487)">
      <g id="Group_1187506" data-name="Group 1187506" transform="translate(7.252 2.342)">
        <path id="Path_1334434" data-name="Path 1334434" d="M34.306,5.751c.805-.209,1.506-.382,2.2-.572a2.217,2.217,0,0,1,1.953.333C41.573,7.663,44.7,9.8,47.808,11.95a1.958,1.958,0,0,1,.544,2.908q-1.928,2.828-3.882,5.636a1.946,1.946,0,0,1-2.946.527q-3.582-2.45-7.154-4.915c-.09-.063-.184-.123-.171-.114l-1.807,2.431c-.011.015-.035.027-.036.04-.028,1.02-.432,2.16.178,3.029A52.339,52.339,0,0,1,41.27,43.1c.1.6.165,1.212.244,1.82A2.435,2.435,0,0,1,39.159,47.8c-.589.047-1.175.12-1.741.178a9.618,9.618,0,0,1-.284,1.125,2.2,2.2,0,0,1-1.5,1.384q-1.412.413-2.84.774c-.313.079-.5.176-.574.54A2.249,2.249,0,0,1,30.6,53.541a19.037,19.037,0,0,1-7.689.885,40.827,40.827,0,0,1-4.529-.834A2.4,2.4,0,0,1,16.5,51.674a.685.685,0,0,0-.427-.381c-.851-.254-1.719-.452-2.573-.7a2.506,2.506,0,0,1-2.068-2.576c-.46-.067-.945-.177-1.432-.2C7.946,47.708,7.033,46.6,7.3,44.565a52.078,52.078,0,0,1,3.493-13,46.288,46.288,0,0,1,5.5-10.071,1.754,1.754,0,0,0,.214-.656,3.166,3.166,0,0,0,.008-.444,3.327,3.327,0,0,0-.876-2.859,5.286,5.286,0,0,1-1.212-3.784c-.014-1.464.063-2.932.145-4.395A17.849,17.849,0,0,0,14.316,4.7a1.381,1.381,0,0,1,.842-1.778c1.628-.886,1.776-.8,2.924.623a22.485,22.485,0,0,0,2.577,2.6c1.094.975,2.267,1.86,3.4,2.794.214.177.38.248.625.044,1.494-1.252,3.031-2.455,4.484-3.751A15.553,15.553,0,0,0,31.022,3.1a1.383,1.383,0,0,1,2.058-.471c.2.106.393.209.587.319a1.329,1.329,0,0,1,.809,1.682c-.057.343-.1.687-.17,1.126m-8.1,15.025h4.83v-1.9H17.776v1.9Zm21.088-7.63a.981.981,0,0,0-.148-.159c-3.127-2.157-6.251-4.32-9.4-6.451a1.387,1.387,0,0,0-.984-.145c-1.37.316-2.726.691-4.087,1.052-.681.181-.837.393-.762,1.062.149,1.326.312,2.65.47,3.975a1.184,1.184,0,0,0,.435,1.079q4.723,3.239,9.441,6.487a.728.728,0,0,0,1.158-.186q1.987-2.85,3.944-5.724a.676.676,0,0,0-.072-.99m-15.4-6.791c.377-.122.97-.143,1.085-.389a3.157,3.157,0,0,0,.271-1.722c-.038-.258-.658-.43-1.057-.665l-.3.508a19.212,19.212,0,0,1-1.6,1.771c-1.633,1.427-3.305,2.808-4.985,4.18a1.43,1.43,0,0,1-1.935-.087c-.765-.617-1.515-1.253-2.281-1.868A21.811,21.811,0,0,1,17.17,4.4c-.208-.274-.408-.554-.614-.834-.272.144-.493.281-.73.381a.468.468,0,0,0-.295.619A18.822,18.822,0,0,1,15.774,9.6c-.087,1.405-.14,2.815-.13,4.223a4.589,4.589,0,0,0,.749,2.685A1.8,1.8,0,0,0,18.2,17.653c4.084-.057,8.168-.07,12.251.007a1.989,1.989,0,0,0,2-1.224c.138-.26.232-.544.361-.811a.507.507,0,0,0-.248-.771,2.766,2.766,0,0,1-1.313-1.38c-.169-1.5-.29-3.014-.521-4.507a2.254,2.254,0,0,1,1.159-2.612M35.12,37.214a3.247,3.247,0,0,0,.036.386q.624,2.963,1.255,5.926c.23,1.081.457,2.162.69,3.262.385-.062.71-.13,1.038-.164s.668-.025,1-.059a1.225,1.225,0,0,0,1.187-1.389,45.454,45.454,0,0,0-1.646-7.992A49.678,49.678,0,0,0,31.75,22.523a1.026,1.026,0,0,0-.952-.493c-4.065.016-8.131.048-12.2-.019a1.839,1.839,0,0,0-1.97,1.111.382.382,0,0,0-.017.053,37.656,37.656,0,0,0-3.593,6.306,51.483,51.483,0,0,0-4.507,15.21c-.18,1.394.271,1.907,1.651,1.875l1.527.241c.666-3.205,1.328-6.389,1.991-9.572.115-.406.309-.768.8-.632.508.139.5.539.4.989-.424,1.933-.825,3.872-1.233,5.809q-.447,2.117-.894,4.236c-.21,1,.067,1.469,1.072,1.775.442.134.891.246,1.337.368l1.409.361c.171-1.474.336-2.887.5-4.3q.535-4.635,1.066-9.271c.17-1.49.323-2.981.484-4.471.089-.423.276-.761.779-.666.485.091.5.479.46.872-.011.111-.015.223-.028.333q-1,8.7-2,17.411c-.235,2.059-.172,2.144,1.846,2.646a19.371,19.371,0,0,0,10.331-.246,1.248,1.248,0,0,0,1.063-1.406q-.264-2.377-.541-4.754-.811-6.991-1.627-13.98c-.047-.4,0-.779.467-.872.5-.1.7.221.767.662.149,1.362.292,2.723.447,4.085q.653,5.711,1.317,11.421c.1.84.207,1.678.315,2.552l1.465-.393c.5-.137,1.006-.257,1.5-.415a1.175,1.175,0,0,0,.87-1.5c-.249-1.217-.507-2.43-.763-3.646-.471-2.248-.939-4.5-1.42-6.744-.094-.441.03-.761.463-.861.472-.11.629.278.784.621" transform="translate(-7.252 -2.342)" fill="#0b0909"/>
        <path id="Path_1334435" data-name="Path 1334435" d="M30.046,30.4c-.067-.441-.271-.761-.768-.662-.467.093-.513.469-.466.872q.815,6.989,1.627,13.98.276,2.377.541,4.754a1.247,1.247,0,0,1-1.063,1.405A19.361,19.361,0,0,1,19.586,51c-2.018-.5-2.081-.588-1.846-2.646q.993-8.706,2-17.411c.012-.11.016-.222.027-.333.038-.393.025-.78-.459-.872-.5-.095-.69.243-.779.666a8.765,8.765,0,0,0-.936.562,2.729,2.729,0,0,0-.876,2.127c-.164,1.8-.421,3.584-.626,5.377-.167,1.465-.312,2.931-.467,4.4q-.276,2.61-.553,5.221c-.446-.122-.895-.234-1.337-.368-1-.306-1.282-.771-1.072-1.775q.444-2.119.892-4.236c.409-1.936.809-3.876,1.234-5.809.1-.451.108-.85-.4-.99s-.688.227-.8.633c-.9,0-1.471.535-1.728,1.631q-.9,3.848-1.788,7.7c-1.381.032-1.831-.481-1.651-1.875a51.481,51.481,0,0,1,4.506-15.21,37.738,37.738,0,0,1,3.594-6.306c2.655,0,5.31,0,7.965.013a10.944,10.944,0,0,1,1.545.108,7.759,7.759,0,0,1,5.587,3.447,36.264,36.264,0,0,1,2.1,3.845,52.042,52.042,0,0,1,4.071,11.716c.168.747.282,1.505.421,2.258l-.137.028c-.046-.172-.1-.343-.137-.517-.427-1.833-.837-3.671-1.284-5.5a1.72,1.72,0,0,0-1.625-1.362c-.155-.344-.311-.731-.784-.621-.432.1-.557.42-.463.861.481,2.246.948,4.5,1.42,6.744.255,1.216.514,2.429.763,3.646a1.175,1.175,0,0,1-.87,1.5c-.493.158-1,.278-1.5.415-.046-.422-.088-.845-.138-1.266-.177-1.5-.365-3-.534-4.5-.164-1.466-.306-2.934-.468-4.4-.173-1.575-.379-3.148-.534-4.725-.125-1.273-.468-2.37-1.869-2.771" transform="translate(-7.152 -0.65)" fill="#fd4747"/>
        <path id="Path_1334436" data-name="Path 1334436" d="M15.723,16.408a4.589,4.589,0,0,1-.749-2.685c-.011-1.407.042-2.818.13-4.223a18.822,18.822,0,0,0-.243-5.037.469.469,0,0,1,.295-.619c.237-.1.458-.236.73-.38.206.279.406.558.614.833a21.847,21.847,0,0,0,3.919,3.687c.766.616,1.516,1.251,2.281,1.868a1.43,1.43,0,0,0,1.935.087c1.679-1.372,3.352-2.754,4.985-4.179a19.354,19.354,0,0,0,1.6-1.771l0,2.267a2.254,2.254,0,0,0-1.159,2.611c.232,1.493.353,3,.521,4.507-.082.1-.172.193-.244.3A6,6,0,0,1,25.07,16.4c-3.116-.005-6.231,0-9.347.007" transform="translate(-6.581 -2.243)" fill="#fd4747"/>
        <path id="Path_1334437" data-name="Path 1334437" d="M34.36,35.617a1.72,1.72,0,0,1,1.625,1.362c.448,1.828.858,3.667,1.284,5.5.04.173.091.344.137.516l.137-.028c-.139-.753-.253-1.512-.421-2.258a51.961,51.961,0,0,0-4.071-11.715,36.278,36.278,0,0,0-2.1-3.846A7.757,7.757,0,0,0,25.365,21.7a10.944,10.944,0,0,0-1.546-.108c-2.655-.013-5.309-.011-7.965-.013a.382.382,0,0,1,.017-.053,1.839,1.839,0,0,1,1.97-1.111c4.064.066,8.13.035,12.2.019a1.026,1.026,0,0,1,.952.493,49.678,49.678,0,0,1,6.931,14.662,45.454,45.454,0,0,1,1.646,7.992,1.225,1.225,0,0,1-1.187,1.389c-.332.034-.668.024-1,.059s-.653.1-1.038.164c-.233-1.1-.46-2.181-.69-3.262Q35.022,38.966,34.4,36a3.247,3.247,0,0,1-.036-.386" transform="translate(-6.491 -0.745)" fill="#f71c1c"/>
        <path id="Path_1334438" data-name="Path 1334438" d="M30.387,12.154c-.158-1.325-.321-2.648-.471-3.974-.075-.67.082-.883.763-1.063,1.359-.361,2.716-.736,4.086-1.051a1.389,1.389,0,0,1,.985.145c3.145,2.13,6.268,4.293,9.4,6.45a.987.987,0,0,1,.147.16,2.57,2.57,0,0,0-.257.278c-.7,1.02-1.429,2.023-2.088,3.07a3.368,3.368,0,0,1-4.731,1.31c-1.133-.73-2.224-1.526-3.338-2.285-1.494-1.018-2.994-2.027-4.492-3.04m5.263-1.583c-.12-.076-.233-.14-.337-.217-.342-.25-.7-.334-.972.053a.59.59,0,0,0,.258.932c.336.182.317.422.279.741a2.126,2.126,0,0,0,2.711,2.308,3.881,3.881,0,0,0,1.289-.894,1.034,1.034,0,0,1,1.21-.267.9.9,0,0,1,.528,1.008c-.084.693-.746,1-1.482.678-.374-.165-.7-.167-.906.222s0,.672.344.864a1.986,1.986,0,0,0,1.97.085.881.881,0,0,1,1.037.024.81.81,0,0,0,.761-.138c.125-.123.108-.653,0-.714-.58-.317-.528-.8-.5-1.321a1.49,1.49,0,0,0-.1-.542,2.207,2.207,0,0,0-3.884-.571.933.933,0,0,1-1.366.27.985.985,0,0,1-.288-1.286.968.968,0,0,1,1.354-.336c.4.186.735.184.936-.241s-.061-.7-.424-.88a2.232,2.232,0,0,0-2.413.222m-3.841-1.4a1.843,1.843,0,0,0,.411-.58c.094-.333-.372-.768-.775-.786a.569.569,0,0,0-.654.594c-.02.355.42.75,1.018.772" transform="translate(-5.25 -2.015)" fill="#65c9fb"/>
        <path id="Path_1334439" data-name="Path 1334439" d="M28.287,29.68c1.4.4,1.744,1.5,1.869,2.771.156,1.577.361,3.15.534,4.725.162,1.467.3,2.935.468,4.4.17,1.5.357,3,.534,4.5.05.421.093.843.138,1.266l-1.465.393c-.109-.874-.218-1.712-.315-2.552q-.661-5.711-1.317-11.421c-.156-1.362-.3-2.723-.447-4.085" transform="translate(-5.393 0.074)" fill="#f51c1c"/>
        <path id="Path_1334440" data-name="Path 1334440" d="M14.526,47.364q.276-2.61.553-5.221c.155-1.465.3-2.932.467-4.4.2-1.793.461-3.58.626-5.376a2.726,2.726,0,0,1,.876-2.127,8.6,8.6,0,0,1,.936-.563c-.161,1.49-.315,2.981-.484,4.471q-.526,4.637-1.066,9.271c-.163,1.415-.328,2.829-.5,4.3l-1.409-.361" transform="translate(-6.609 0.075)" fill="#f61c1c"/>
        <path id="Path_1334441" data-name="Path 1334441" d="M15.651,15.6c3.116,0,6.231-.012,9.347-.007a6,6,0,0,0,5.27-2.731c.072-.1.162-.2.244-.3a2.757,2.757,0,0,0,1.313,1.38.508.508,0,0,1,.248.772c-.13.266-.223.55-.361.81a1.989,1.989,0,0,1-2,1.224c-4.083-.075-8.167-.063-12.251-.007A1.8,1.8,0,0,1,15.651,15.6" transform="translate(-6.509 -1.438)" fill="#f71c1c"/>
        <path id="Path_1334442" data-name="Path 1334442" d="M25.351,19.433h-8.43v-1.9h8.433l0,1.9" transform="translate(-6.397 -0.999)" fill="#fecb33"/>
        <path id="Path_1334443" data-name="Path 1334443" d="M30.347,11.657c1.5,1.013,3,2.022,4.491,3.04,1.116.759,2.206,1.554,3.34,2.285a3.367,3.367,0,0,0,4.73-1.309c.658-1.048,1.387-2.051,2.088-3.071a2.561,2.561,0,0,1,.257-.278.675.675,0,0,1,.071.99q-1.959,2.87-3.944,5.723a.728.728,0,0,1-1.157.187q-4.725-3.237-9.44-6.488a1.179,1.179,0,0,1-.435-1.079" transform="translate(-5.21 -1.518)" fill="#41bdef"/>
        <path id="Path_1334444" data-name="Path 1334444" d="M9.931,43.734q.893-3.851,1.788-7.7c.257-1.1.833-1.629,1.728-1.631-.662,3.184-1.323,6.366-1.991,9.572l-1.526-.241" transform="translate(-7.015 0.492)" fill="#f51c1c"/>
        <path id="Path_1334445" data-name="Path 1334445" d="M24.666,19.433l0-1.9H29.5v1.9Z" transform="translate(-5.713 -0.999)" fill="#e5aa13"/>
        <path id="Path_1334446" data-name="Path 1334446" d="M29.891,6.254l0-2.267.3-.509c.4.236,1.019.408,1.057.666a3.158,3.158,0,0,1-.271,1.722c-.115.245-.709.266-1.085.389" transform="translate(-5.251 -2.241)" fill="#f31c1c"/>
        <path id="Path_1334447" data-name="Path 1334447" d="M35.3,10.242a2.23,2.23,0,0,1,2.412-.222c.365.185.635.442.426.88s-.539.426-.937.241a.966.966,0,0,0-1.353.336.982.982,0,0,0,.288,1.285.932.932,0,0,0,1.366-.269,2.207,2.207,0,0,1,3.884.571,1.538,1.538,0,0,1,.1.542c-.027.517-.079,1,.5,1.321.111.061.13.591,0,.714a.81.81,0,0,1-.761.138.882.882,0,0,0-1.038-.024,1.989,1.989,0,0,1-1.97-.085c-.348-.193-.554-.467-.344-.864s.532-.387.906-.222c.738.324,1.4.015,1.482-.678a.9.9,0,0,0-.527-1.008,1.033,1.033,0,0,0-1.21.267,3.881,3.881,0,0,1-1.289.894,2.126,2.126,0,0,1-2.711-2.308c.038-.319.057-.559-.279-.741a.591.591,0,0,1-.259-.932c.275-.389.631-.3.973-.053.1.076.218.14.337.217" transform="translate(-4.901 -1.686)" fill="#080a0b"/>
        <path id="Path_1334448" data-name="Path 1334448" d="M31.737,9.032c-.6-.022-1.037-.417-1.018-.772a.569.569,0,0,1,.654-.594c.4.017.869.453.775.786a1.843,1.843,0,0,1-.411.58" transform="translate(-5.178 -1.871)" fill="#090c0e"/>
      </g>
    </g>
  </g>
</svg>
