<svg xmlns="http://www.w3.org/2000/svg" xmlns:xlink="http://www.w3.org/1999/xlink" width="118" height="118" viewBox="0 0 118 118">
  <defs>
    <filter id="Ellipse_12115" x="0" y="0" width="118" height="118" filterUnits="userSpaceOnUse">
      <feOffset dy="3" input="SourceAlpha"/>
      <feGaussianBlur stdDeviation="3" result="blur"/>
      <feFlood flood-opacity="0.161"/>
      <feComposite operator="in" in2="blur"/>
      <feComposite in="SourceGraphic"/>
    </filter>
    <clipPath id="clip-path">
      <rect id="Rectangle_410406" data-name="Rectangle 410406" width="64.561" height="64.561" fill="none"/>
    </clipPath>
  </defs>
  <g id="Group_1187028" data-name="Group 1187028" transform="translate(9 6)">
    <g id="Group_1181949" data-name="Group 1181949">
      <g transform="matrix(1, 0, 0, 1, -9, -6)" filter="url(#Ellipse_12115)">
        <g id="Ellipse_12115-2" data-name="Ellipse 12115" transform="translate(9 6)" fill="#f7f4f3" stroke="#344b50" stroke-width="1.5">
          <circle cx="50" cy="50" r="50" stroke="none"/>
          <circle cx="50" cy="50" r="49.25" fill="none"/>
        </g>
      </g>
    </g>
    <g id="Group_1187030" data-name="Group 1187030" transform="translate(17.72 17.72)">
      <g id="Group_1187029" data-name="Group 1187029" clip-path="url(#clip-path)">
        <path id="Path_1264379" data-name="Path 1264379" d="M64.7,12.178V14.7a1.55,1.55,0,0,0-.124.255,24.083,24.083,0,0,1-1.047,3.643,13.122,13.122,0,0,1-5.945,5.932c-1.783.97-3.678,1.734-5.556,2.605l.182.446a26.518,26.518,0,0,1,1.627,14.4,26.182,26.182,0,0,1-6.788,14A26.579,26.579,0,0,1,31.7,64.3c-.745.126-1.491.246-2.236.369H24.806c-.393-.083-.782-.19-1.18-.244A26.165,26.165,0,0,1,9.982,58.446,26.663,26.663,0,0,1,.612,42.1a27.216,27.216,0,0,1-.054-8.449c.121-.855.553-1.207,1.221-1.066.592.125.817.607.687,1.393a23.666,23.666,0,0,0,.105,8.256A24.193,24.193,0,0,0,9.065,54.941a24.4,24.4,0,0,0,22.579,7.4A23.841,23.841,0,0,0,46,54.238a24.542,24.542,0,0,0,6.08-19.528,24.152,24.152,0,0,0-4.937-12.156,24.61,24.61,0,0,0-5.318-5.186L39.183,19.44c.106.075.192.133.276.194,7.247,5.292,10.563,12.414,9.312,21.306C47.693,48.6,43.367,54.126,36.39,57.5a21.559,21.559,0,0,1-10.922,1.989c-1.154-.072-1.339-.213-1.509-1.1.306-.8.557-.92,1.423-.849.727.059,1.46.047,2.19.067a27.515,27.515,0,0,0,3.058-.264A19.941,19.941,0,0,0,46.68,33.4a14.343,14.343,0,0,0-3.99,2.867,3.694,3.694,0,0,0-1.006,2.5,13.8,13.8,0,0,0,.2,2.748,6.874,6.874,0,0,1-1.123,5.657A11.811,11.811,0,0,1,37.5,50.262c-.361.164-.714.35-1.084.489-2.309.865-4.144-.059-4.663-2.46a21.7,21.7,0,0,1-.387-3.677c-.065-1.55.025-3.106-.037-4.656a23.609,23.609,0,0,0-.372-2.917.625.625,0,0,0-.823-.549,20.746,20.746,0,0,1-2.728.418,18.918,18.918,0,0,1-4.179-.031c-3.219-.573-4.513-4.455-3.895-6.963a8.539,8.539,0,0,1,2.822-4.354c.157-.14.308-.286.523-.485A16.934,16.934,0,0,1,14.8,22.135,20.644,20.644,0,0,0,9.233,29.08a1.393,1.393,0,0,0,.1,1.614c.87,1.325,1.559,2.768,2.4,4.114a2.721,2.721,0,0,0,1.139.891c.695.328,1.468.49,2.163.818a2.57,2.57,0,0,1,1.484,3.276,30.178,30.178,0,0,1-1.121,2.85c-.417,1-.861,1.991-1.291,2.987a1.258,1.258,0,0,0,.149,1.24,10.458,10.458,0,0,1,1.456,6.624.64.64,0,0,0,.372.742c1.119.607,2.224,1.24,3.358,1.818.8.41.888.5.807,1.4-.536.658-.771.734-1.562.363C10.372,53.923,5.836,47.424,5.425,38.223A20.529,20.529,0,0,1,10.1,24.192c.922-1.158,2-2.195,3-3.289C8.635,16.54,6.867,14.249,4.577,9.841c-.386-.743-.344-1.072.263-1.6A34.983,34.983,0,0,1,16.588,1.306,17.7,17.7,0,0,1,26.405.6a18.491,18.491,0,0,1,7.48,3.918A1.057,1.057,0,0,1,34.235,6c-.708.548-.911.545-1.632-.045a16.076,16.076,0,0,0-6.279-3.376c-1.006-.251-2.046-.368-3.07-.546l-.066.191L24.161,3.5q3.454,4.737,6.914,9.468a.828.828,0,0,0,.431.325c.774.16,1.557.281,2.337.416L39.722,14.9l.12-.189c-1.077-1.539-2.14-3.089-3.238-4.613C36.03,9.3,36,9.156,36.577,8.4a1.057,1.057,0,0,1,1.458.421Q40,11.836,41.993,14.836a3.682,3.682,0,0,0,.638.739c1.342,1.165,2.7,2.314,4.048,3.469.116.1.231.2.389.339a2,2,0,0,0,.026-.326c-.054-.456-.118-.911-.173-1.367a11.418,11.418,0,0,1,3.172-9.957A22.314,22.314,0,0,1,60.2,2.226a1.048,1.048,0,0,1,1.352.568,25.736,25.736,0,0,1,2.632,6.73c.2.877.345,1.769.515,2.654m-6.664,2.63c1.449-.587,2.9-1.16,4.338-1.781a.772.772,0,0,0,.3-.627,20.333,20.333,0,0,0-1.972-7.071l-2.7,6.568-1.569,3.617,1.6-.707M56.281,5.755a16.005,16.005,0,0,0-4.1,2.622c-.268.231-.232.421-.112.7.564,1.324,1.1,2.658,1.655,3.988.269.652.54,1.3.86,2.076l2.7-6.616,1.643-3.807-.111-.111L56.281,5.755M53.74,22.113,52.6,24.744a21.81,21.81,0,0,0,5.847-3.053,10.345,10.345,0,0,0,3.807-4.946c.178-.529.266-1.089.431-1.786L57.392,17.2c-.578.222-1.159.436-1.731.673a.592.592,0,0,0-.292.287c-.551,1.315-1.088,2.636-1.629,3.956M22.881,23.147a35.38,35.38,0,0,0,4.16-.238,25.635,25.635,0,0,0,9.6-4.1c.936-.607,1.834-1.275,2.749-1.915l-.053-.158L35,15.952c-1.2-.251-2.4-.529-3.608-.732a1.409,1.409,0,0,0-.955.237c-2.378,1.709-4.734,3.448-7.094,5.181-.928.681-1.85,1.369-2.774,2.053.012.059.024.117.036.176l2.275.28M41.563,34.625c1.17-.835,2.312-1.712,3.518-2.491,1.078-.7,1.117-.652.614-1.87a19.856,19.856,0,0,0-7.876-9.4.787.787,0,0,0-.64-.107c-.787.422-1.543.9-2.31,1.36-.245.112-.5.215-.736.336a20.746,20.746,0,0,1-6.287,2.219,8.02,8.02,0,0,0-3.573,1.635,8.062,8.062,0,0,0-2.789,3.17,3.869,3.869,0,0,0,3.647,5.712,37.734,37.734,0,0,0,4.6-.543,2.357,2.357,0,0,1,2.957,1.66,12.8,12.8,0,0,1,.523,3.135c.086,1.8-.022,3.608.057,5.408a19.025,19.025,0,0,0,.472,3.4c.191.833.774,1.074,1.6.845a7.338,7.338,0,0,0,3.99-3.166,5.273,5.273,0,0,0,.663-4.259c-.48-2.559-.371-5.014,1.572-7.045M13.857,52.49a8.709,8.709,0,0,0-1.308-4.8,2.528,2.528,0,0,1-.338-2.215c.327-.942.691-1.872,1.07-2.795.451-1.1.952-2.176,1.4-3.277a.844.844,0,0,0-.533-1.213,17.387,17.387,0,0,0-1.647-.586,3.967,3.967,0,0,1-2.541-1.99Q9.3,34.407,8.629,33.2c-.162-.3-.328-.589-.528-.949A20,20,0,0,0,13.857,52.49m14.5-37.871c-2.474-.49-4.825-.952-7.174-1.425a1.292,1.292,0,0,0-1.146.258c-1.293.991-2.624,1.934-3.939,2.9-.934.686-1.864,1.377-2.842,2.1a20.518,20.518,0,0,0,4.639,3.319.677.677,0,0,0,.832-.074c1.239-.925,2.492-1.832,3.739-2.748,1.934-1.42,3.866-2.841,5.891-4.328M15.5,3.573c1.915,2.618,3.676,5.033,5.454,7.435a1.009,1.009,0,0,0,.566.316c1.181.256,2.366.49,3.552.722,1.106.216,2.215.419,3.432.649-.23-.322-.385-.542-.544-.759q-3.43-4.678-6.869-9.349c-.111-.15-.373-.324-.518-.289-1.652.392-3.3.822-5.074,1.276M50.8,24.129c.918-2.192,1.787-4.248,2.628-6.315a.983.983,0,0,0-.07-.648c-.407-1.028-.838-2.047-1.262-3.068-.525-1.265-1.052-2.53-1.659-3.987-.418.822-.806,1.46-1.079,2.144a10.685,10.685,0,0,0-.517,5.5,21.85,21.85,0,0,0,1.96,6.377M11.772,17.176l6.242-4.585L7.242,10.5l-.168.227,4.7,6.45M7.415,8.6l10.974,2.133L13.825,4.5a35.311,35.311,0,0,0-6.41,4.1" transform="translate(-0.142 -0.111)" fill="#080b0a"/>
        <path id="Path_1264382" data-name="Path 1264382" d="M34.946,85.877l-3.714-.932c.08-.9-.005-.991-.807-1.4-1.133-.579-2.239-1.211-3.358-1.818a.64.64,0,0,1-.372-.742,10.453,10.453,0,0,0-1.456-6.624,1.258,1.258,0,0,1-.148-1.24c.43-1,.874-1.986,1.29-2.987A30.169,30.169,0,0,0,27.5,67.283a2.569,2.569,0,0,0-1.484-3.276c-.694-.328-1.468-.49-2.163-.818a2.726,2.726,0,0,1-1.139-.891c-.84-1.347-1.528-2.789-2.4-4.115a1.39,1.39,0,0,1-.1-1.614,20.632,20.632,0,0,1,5.561-6.945,16.939,16.939,0,0,0,7.886,2.943c-.215.2-.366.345-.523.485a8.542,8.542,0,0,0-2.822,4.355c-.618,2.508.676,6.39,3.895,6.963A18.891,18.891,0,0,0,38.4,64.4a20.736,20.736,0,0,0,2.728-.419.625.625,0,0,1,.823.549,23.592,23.592,0,0,1,.372,2.916c.063,1.55-.028,3.106.037,4.656a21.7,21.7,0,0,0,.387,3.677c.52,2.4,2.354,3.325,4.663,2.46.371-.138.723-.325,1.085-.489a1.05,1.05,0,0,1-.1.348,18.479,18.479,0,0,1-5.4,4.844c-1.422.81-2.946,1.441-4.424,2.152-.73-.02-1.463-.007-2.19-.067-.867-.071-1.117.051-1.423.849" transform="translate(-11.128 -27.601)" fill="#81bee3"/>
        <path id="Path_1264383" data-name="Path 1264383" d="M67.63,62.1c-1.943,2.031-2.052,4.485-1.572,7.045a5.275,5.275,0,0,1-.663,4.259,7.341,7.341,0,0,1-3.99,3.166c-.822.23-1.405-.012-1.6-.845a19.013,19.013,0,0,1-.472-3.4c-.079-1.8.028-3.609-.058-5.408a12.777,12.777,0,0,0-.522-3.135,2.358,2.358,0,0,0-2.957-1.66,37.887,37.887,0,0,1-4.6.543,3.869,3.869,0,0,1-3.646-5.712,8.058,8.058,0,0,1,2.789-3.17,8.015,8.015,0,0,1,3.573-1.635A20.755,20.755,0,0,0,60.2,49.926c.241-.122.49-.225.736-.336a20.729,20.729,0,0,1,5.274,7.33A16.805,16.805,0,0,1,67.63,62.1" transform="translate(-26.208 -27.582)" fill="#b6c955"/>
        <path id="Path_1264384" data-name="Path 1264384" d="M61.808,99.211c1.478-.711,3-1.342,4.424-2.152a18.472,18.472,0,0,0,5.4-4.844,1.037,1.037,0,0,0,.1-.348A11.816,11.816,0,0,0,75,88.78a6.876,6.876,0,0,0,1.123-5.657,13.807,13.807,0,0,1-.2-2.748,3.693,3.693,0,0,1,1.006-2.5A14.362,14.362,0,0,1,80.916,75a19.941,19.941,0,0,1-16.05,23.941,27.5,27.5,0,0,1-3.057.265" transform="translate(-34.377 -41.717)" fill="#53a1da"/>
        <path id="Path_1264385" data-name="Path 1264385" d="M22.7,92.66a20,20,0,0,1-5.757-20.239c.2.36.366.654.529.949q.665,1.208,1.327,2.417a3.966,3.966,0,0,0,2.541,1.99,17.47,17.47,0,0,1,1.647.586.844.844,0,0,1,.533,1.213c-.445,1.1-.946,2.179-1.4,3.277-.379.923-.744,1.853-1.071,2.8a2.528,2.528,0,0,0,.339,2.215,8.707,8.707,0,0,1,1.308,4.8" transform="translate(-8.983 -40.28)" fill="#b5c854"/>
        <path id="Path_1264386" data-name="Path 1264386" d="M44.642,30.858c-2.024,1.488-3.957,2.909-5.891,4.329-1.246.915-2.5,1.822-3.738,2.748a.679.679,0,0,1-.833.074,20.54,20.54,0,0,1-4.639-3.32c.978-.722,1.908-1.413,2.842-2.1,1.314-.965,2.645-1.907,3.938-2.9a1.293,1.293,0,0,1,1.147-.258c2.349.474,4.7.935,7.173,1.425" transform="translate(-16.43 -16.35)" fill="#5ca648"/>
        <path id="Path_1264387" data-name="Path 1264387" d="M62.973,8.29l2.342,2.4c-.578.755-.547.895.027,1.693,1.1,1.524,2.161,3.074,3.238,4.613l-.12.189L62.581,16c0-.119.053-.269,0-.353-.447-.7-.889-1.41-1.379-2.083a27.9,27.9,0,0,0-7.771-7.588,2.512,2.512,0,0,0-.532-.185l-.975-1.278.066-.191c1.024.178,2.064.3,3.07.546a16.076,16.076,0,0,1,6.279,3.376c.721.591.924.593,1.632.045" transform="translate(-28.88 -2.404)" fill="#3e9925"/>
        <path id="Path_1264388" data-name="Path 1264388" d="M84.942,60.349a16.805,16.805,0,0,0-1.421-5.176,20.729,20.729,0,0,0-5.274-7.33c.767-.459,1.523-.939,2.31-1.36a.786.786,0,0,1,.641.107,19.856,19.856,0,0,1,7.876,9.4c.5,1.218.464,1.173-.614,1.87-1.206.779-2.348,1.657-3.518,2.492" transform="translate(-43.52 -25.834)" fill="#93b61f"/>
        <path id="Path_1264389" data-name="Path 1264389" d="M34.6,6.2c1.778-.454,3.421-.884,5.074-1.276.145-.035.408.139.518.289q3.447,4.665,6.869,9.349c.159.217.314.438.544.759-1.217-.229-2.326-.433-3.432-.649-1.186-.232-2.372-.466-3.552-.722a1.009,1.009,0,0,1-.566-.316c-1.778-2.4-3.538-4.816-5.454-7.435" transform="translate(-19.244 -2.735)" fill="#5ca648"/>
        <path id="Path_1264390" data-name="Path 1264390" d="M48.339,41.957l-2.275-.28-.036-.176c.925-.685,1.847-1.373,2.774-2.054,2.36-1.733,4.716-3.472,7.094-5.181a1.409,1.409,0,0,1,.955-.237c1.209.2,2.406.482,3.608.732-.662.6-1.3,1.236-1.992,1.793a33.815,33.815,0,0,1-7.8,4.718,19.491,19.491,0,0,1-2.322.684" transform="translate(-25.6 -18.92)" fill="#5ca648"/>
        <path id="Path_1264391" data-name="Path 1264391" d="M111.518,36.55a21.838,21.838,0,0,1-1.96-6.377,10.685,10.685,0,0,1,.517-5.5c.273-.684.661-1.322,1.079-2.144.606,1.457,1.133,2.722,1.658,3.987.424,1.022.856,2.04,1.263,3.068a.983.983,0,0,1,.07.648c-.841,2.066-1.71,4.122-2.628,6.315" transform="translate(-60.86 -12.532)" fill="#5ba648"/>
        <path id="Path_1264392" data-name="Path 1264392" d="M122.989,35.694l5.292-2.239c-.165.7-.253,1.258-.431,1.787a10.342,10.342,0,0,1-3.807,4.945,21.81,21.81,0,0,1-5.847,3.053l1.142-2.63c.053.013.128.055.154.035a11.275,11.275,0,0,0,3.444-4.335,1.869,1.869,0,0,0,.053-.616" transform="translate(-65.739 -18.607)" fill="#3e9925"/>
        <path id="Path_1264393" data-name="Path 1264393" d="M20.317,30.085l-4.7-6.45.169-.227L26.558,25.5l-6.241,4.585" transform="translate(-8.687 -13.019)" fill="#5ba547"/>
        <path id="Path_1264394" data-name="Path 1264394" d="M51.236,42.89a19.491,19.491,0,0,0,2.322-.684,33.815,33.815,0,0,0,7.8-4.718c.7-.557,1.33-1.193,1.992-1.793l4.335.783c.017.053.035.105.053.158-.915.64-1.813,1.307-2.749,1.915a25.64,25.64,0,0,1-9.6,4.1,35.474,35.474,0,0,1-4.16.238" transform="translate(-28.497 -19.853)" fill="#3e9925"/>
        <path id="Path_1264395" data-name="Path 1264395" d="M16.387,13.99a35.311,35.311,0,0,1,6.41-4.1l4.563,6.229L16.387,13.99" transform="translate(-9.114 -5.503)" fill="#5ba547"/>
        <path id="Path_1264396" data-name="Path 1264396" d="M122.1,15.488,119.4,22.1c-.319-.771-.59-1.423-.86-2.076-.55-1.33-1.091-2.664-1.655-3.988-.12-.281-.155-.471.112-.7a16,16,0,0,1,4.1-2.622l1,2.771" transform="translate(-64.96 -7.073)" fill="#5ba648"/>
        <path id="Path_1264397" data-name="Path 1264397" d="M130.393,18.327l2.7-6.568a20.342,20.342,0,0,1,1.971,7.071.772.772,0,0,1-.3.627c-1.434.621-2.89,1.194-4.339,1.781q-.013-1.455-.027-2.91" transform="translate(-72.523 -6.54)" fill="#3e9925"/>
        <path id="Path_1264398" data-name="Path 1264398" d="M54.121,7.634a2.536,2.536,0,0,1,.532.184,27.9,27.9,0,0,1,7.771,7.589c.49.673.932,1.381,1.379,2.083.053.084,0,.234,0,.353-.78-.135-1.562-.256-2.337-.416a.829.829,0,0,1-.431-.325q-3.464-4.729-6.914-9.468" transform="translate(-30.102 -4.246)" fill="#5ba647"/>
        <path id="Path_1264399" data-name="Path 1264399" d="M124.421,38.5a1.87,1.87,0,0,1-.053.616,11.275,11.275,0,0,1-3.444,4.335c-.027.02-.1-.022-.154-.035.541-1.319,1.078-2.64,1.629-3.956a.592.592,0,0,1,.292-.287c.572-.237,1.153-.451,1.731-.673" transform="translate(-67.171 -21.413)" fill="#5aa546"/>
        <path id="Path_1264400" data-name="Path 1264400" d="M127.5,14.051l-1-2.771,2.535-1.147.112.111L127.5,14.051" transform="translate(-70.355 -5.636)" fill="#3d9826"/>
        <path id="Path_1264401" data-name="Path 1264401" d="M128.426,26.559q.013,1.455.027,2.91l-1.6.707,1.569-3.618" transform="translate(-70.557 -14.772)" fill="#59a445"/>
      </g>
    </g>
  </g>
</svg>
