<svg xmlns="http://www.w3.org/2000/svg" xmlns:xlink="http://www.w3.org/1999/xlink" width="118" height="118" viewBox="0 0 118 118">
  <defs>
    <filter id="Ellipse_12115" x="0" y="0" width="118" height="118" filterUnits="userSpaceOnUse">
      <feOffset dy="3" input="SourceAlpha"/>
      <feGaussianBlur stdDeviation="3" result="blur"/>
      <feFlood flood-opacity="0.161"/>
      <feComposite operator="in" in2="blur"/>
      <feComposite in="SourceGraphic"/>
    </filter>
    <clipPath id="clip-path">
      <rect id="Rectangle_410407" data-name="Rectangle 410407" width="61.85" height="61.85" fill="none"/>
    </clipPath>
  </defs>
  <g id="Group_1186154" data-name="Group 1186154" transform="translate(9 6)">
    <g id="Group_1181949" data-name="Group 1181949" transform="translate(0)">
      <g transform="matrix(1, 0, 0, 1, -9, -6)" filter="url(#Ellipse_12115)">
        <g id="Ellipse_12115-2" data-name="Ellipse 12115" transform="translate(9 6)" fill="#f7f4f3" stroke="#344b50" stroke-width="1.5">
          <circle cx="50" cy="50" r="50" stroke="none"/>
          <circle cx="50" cy="50" r="49.25" fill="none"/>
        </g>
      </g>
    </g>
    <g id="Group_1187032" data-name="Group 1187032" transform="translate(19.075 19.075)">
      <g id="Group_1187031" data-name="Group 1187031" clip-path="url(#clip-path)">
        <path id="Path_1264403" data-name="Path 1264403" d="M49,51.75a8.891,8.891,0,0,1-7.521,6.75c0,.312,0,.627,0,.943a2.864,2.864,0,0,1-2.934,2.916q-.935,0-1.869,0a2.861,2.861,0,0,1-2.914-2.935c0-.281,0-.561,0-.882H24.113c0,.283,0,.6,0,.907a2.862,2.862,0,0,1-2.88,2.909q-.965.007-1.929,0a2.793,2.793,0,0,1-2.883-2.88,1.374,1.374,0,0,0-1.057-1.626,10.492,10.492,0,0,1-4.754-3.889c0,.626,0,1.132,0,1.636a3.855,3.855,0,0,1-3.479,3.861,3.877,3.877,0,0,1-1.025-7.681,5.015,5.015,0,0,1,.619-.034v1.735a7.689,7.689,0,0,0-1.467.972,1.739,1.739,0,0,0-.081,2.223,1.858,1.858,0,0,0,2.105.755,1.921,1.921,0,0,0,1.4-1.947c.009-3.034,0-6.068,0-9.1a11.1,11.1,0,0,1,7-10.226c.11-.043.213-.1.307-.148-1.458-5.128-.014-9.258,4.217-12.474-3.376-1.334-4.964-3.8-4.758-7.582,2.2.114,4.383.158,6.545.368a5.542,5.542,0,0,1,3.047,1.7V12.2c-.184,0-.4,0-.607,0-1.885-.039-3.787.065-5.652-.151A8.5,8.5,0,0,1,11.7,5c-.112-.785-.119-1.586-.179-2.438,2.357,0,4.624-.062,6.884.028a10.244,10.244,0,0,1,3.152.61,8.55,8.55,0,0,1,5.448,7.982c0,.964,0,1.928,0,2.972.157-.119.275-.2.384-.292A6.679,6.679,0,0,1,31.849,12.2c1.583.01,3.166,0,4.742,0a6.755,6.755,0,0,1-6.662,7.716c-.959,0-1.918,0-2.9,0v1.9c.7.164,1.414.28,2.091.5a12.892,12.892,0,0,1,2.088.887.621.621,0,0,0,.9-.12q4.435-4.473,8.9-8.916c.14-.141.264-.3.376-.425l3.77,3.779,6.373-6.384L48.054,7.7,62.922,5.224q-1.231,7.386-2.432,14.6L57.1,16.413,45.442,28.077l-3.9-3.96c-.762.766-1.423,1.433-2.086,2.1-.965.967-1.926,1.939-2.9,2.892a.879.879,0,0,0-.232.789c.05,1.207.581,1.756,1.806,2.057a6.38,6.38,0,0,1,3.789,3.07,1.242,1.242,0,0,0,.658.488,8.849,8.849,0,0,1,6.337,6.163c.108.337.224.451.565.439a5.238,5.238,0,0,1,1.317.059,2.846,2.846,0,0,1,2.252,2.875c0,1.286.007,2.572,0,3.858a2.861,2.861,0,0,1-2.824,2.846c-.4,0-.8,0-1.228,0M22.183,56.61h13.5c0,.879,0,1.721,0,2.562,0,.924.341,1.253,1.281,1.258q.663,0,1.326,0c.9-.006,1.243-.346,1.248-1.231,0-.859,0-1.717,0-2.627.367,0,.683,0,1,0a6.761,6.761,0,0,0,6.347-4.681c.179-.552.351-1.108.478-1.673.074-.326.226-.412.537-.4.662.02,1.326.01,1.989.005.858-.006,1.218-.354,1.223-1.2q.01-1.687,0-3.375c0-.854-.356-1.208-1.2-1.214s-1.677,0-2.512,0c-.051-.275-.1-.49-.13-.709a6.839,6.839,0,0,0-5.719-5.993,1.211,1.211,0,0,1-1.077-.83,3.958,3.958,0,0,0-.449-.779,5.122,5.122,0,0,0-3.415-2.184,10.906,10.906,0,0,1-4.477,7.634h4.474v1.852H15.458V41.138h4.374c-.587-.555-1.154-1.027-1.644-1.569s-.912-1.162-1.364-1.749a9.369,9.369,0,0,0-6.238,8.695c-.228,5.278,2.872,9.3,7.74,10.3,0,.788,0,1.587,0,2.386,0,.884.352,1.224,1.249,1.23.462,0,.924,0,1.386,0,.857-.007,1.213-.354,1.22-1.2.006-.861,0-1.723,0-2.621M34.722,32.439a8.68,8.68,0,1,0-8.691,8.7,8.719,8.719,0,0,0,8.691-8.7M56.985,13.581l2.2,2.21q.667-4.017,1.361-8.189L52.129,9.006l2.238,2.052L45.132,20.29l-3.643-3.654-8.08,8.083,2.086,2.7L41.5,21.407l3.827,3.84L56.985,13.581M24.94,10.388a2.9,2.9,0,0,0,0-.5,6.592,6.592,0,0,0-4.451-5.017c-2.237-.761-4.566-.223-6.855-.4a6.346,6.346,0,0,0,4.9,5.523,60.3,60.3,0,0,0,6.413.4M25,21.9a4.538,4.538,0,0,0-3.273-3.63,27.883,27.883,0,0,0-4.239-.393,4.6,4.6,0,0,0,3.678,3.825c1.235.178,2.5.138,3.834.2m9.575-7.764c-1.043,0-2.083-.054-3.115.011a4.72,4.72,0,0,0-4.309,3.831c1.043,0,2.083.056,3.115-.012a4.718,4.718,0,0,0,4.309-3.83" transform="translate(-1.808 -1.594)" fill="#0a0909"/>
        <path id="Path_1264404" data-name="Path 1264404" d="M35.19,109.007c0,.9.005,1.759,0,2.621-.006.844-.363,1.191-1.22,1.2-.462,0-.924,0-1.386,0-.9-.006-1.244-.345-1.249-1.23,0-.8,0-1.6,0-2.386-4.868-1-7.968-5.022-7.74-10.3a9.369,9.369,0,0,1,6.238-8.695c.452.587.87,1.2,1.364,1.749s1.057,1.015,1.644,1.569H28.466v1.887h21.15V93.57H45.142a10.906,10.906,0,0,0,4.477-7.634,5.122,5.122,0,0,1,3.415,2.184,3.958,3.958,0,0,1,.449.779,1.211,1.211,0,0,0,1.077.83,6.839,6.839,0,0,1,5.719,5.993c.029.219.079.434.13.709.835,0,1.674,0,2.512,0s1.2.36,1.2,1.214q.008,1.687,0,3.375c0,.842-.364,1.189-1.223,1.2-.663,0-1.326.015-1.989-.005-.311-.009-.463.077-.537.4-.127.565-.3,1.121-.478,1.673a6.761,6.761,0,0,1-6.347,4.681c-.316.005-.633,0-1,0,0,.91,0,1.768,0,2.627,0,.885-.352,1.225-1.248,1.231q-.663,0-1.326,0c-.94,0-1.278-.334-1.281-1.258,0-.841,0-1.683,0-2.562Zm-6.432-5.487c-1.487-1.762-1.394-3.815-1.165-5.916l-1.885-.45c-.354,2.761-.358,5.368,1.58,7.618l1.47-1.253m2.775,1.78-1.632-.712-1.063,1.646,2.218.964.477-1.9m24.9-9.832a.966.966,0,1,0-.988-.913.958.958,0,0,0,.988.913" transform="translate(-14.816 -53.992)" fill="#e9b389"/>
        <path id="Path_1264405" data-name="Path 1264405" d="M59.2,68.341a8.68,8.68,0,1,1-8.67-8.66,8.721,8.721,0,0,1,8.67,8.66m-9.627,4.89v1.852H51.5V73.166H54.38c0-1.016.01-1.978,0-2.939A2.88,2.88,0,0,0,51.524,67.4c-.623-.007-1.246.01-1.868-.005a.986.986,0,0,1-1.06-1.051c-.011-.275,0-.551,0-.874.81,0,1.57.029,2.327-.008.773-.038,1.407.093,1.567.948h2.063a12.184,12.184,0,0,0-.788-1.73,2.816,2.816,0,0,0-2.3-1.171V61.65h-1.94v1.906H46.664c0,.991-.008,1.95,0,2.909a2.881,2.881,0,0,0,2.885,2.86c.623.006,1.246-.012,1.868.006a.969.969,0,0,1,1.026.959c.022.312,0,.626,0,.965-.854,0-1.636-.026-2.416.007-.743.032-1.313-.148-1.472-.937H46.68c.023,1.575,1.088,2.652,2.9,2.906" transform="translate(-26.288 -37.496)" fill="#ffcb59"/>
        <path id="Path_1264406" data-name="Path 1264406" d="M108.587,22.14,96.932,33.8,93.1,29.965,87.1,35.983l-2.086-2.7L93.09,25.2l3.643,3.654,9.235-9.232-2.237-2.052,8.412-1.4q-.693,4.17-1.361,8.189l-2.2-2.21" transform="translate(-53.41 -10.153)" fill="#ea685c"/>
        <path id="Path_1264407" data-name="Path 1264407" d="M43.114,13.612a60.1,60.1,0,0,1-6.413-.4,6.345,6.345,0,0,1-4.9-5.523c2.289.179,4.618-.359,6.855.4a6.591,6.591,0,0,1,4.451,5.017,2.894,2.894,0,0,1,0,.5" transform="translate(-19.982 -4.819)" fill="#aec86a"/>
        <path id="Path_1264408" data-name="Path 1264408" d="M49.695,47.839c-1.333-.061-2.6-.02-3.834-.2a4.6,4.6,0,0,1-3.678-3.825,27.93,27.93,0,0,1,4.239.393,4.538,4.538,0,0,1,3.273,3.63" transform="translate(-26.502 -27.529)" fill="#adc769"/>
        <path id="Path_1264409" data-name="Path 1264409" d="M75.6,33.718a4.718,4.718,0,0,1-4.309,3.83c-1.032.068-2.072.012-3.115.012a4.72,4.72,0,0,1,4.309-3.831c1.032-.065,2.072-.011,3.115-.011" transform="translate(-42.835 -21.171)" fill="#adc769"/>
        <path id="Path_1264410" data-name="Path 1264410" d="M32.048,122.48l-1.47,1.253c-1.938-2.251-1.933-4.858-1.58-7.619l1.885.45c-.228,2.1-.321,4.154,1.165,5.916" transform="translate(-18.105 -72.952)" fill="#0d0b09"/>
        <path id="Path_1264411" data-name="Path 1264411" d="M40.419,136.824l-.477,1.9-2.218-.964,1.063-1.646,1.632.712" transform="translate(-23.701 -85.516)" fill="#100d0a"/>
        <path id="Path_1264412" data-name="Path 1264412" d="M110.287,108.313a.966.966,0,1,1,.942-.96.958.958,0,0,1-.942.96" transform="translate(-68.669 -66.837)" fill="#130f0c"/>
        <path id="Path_1264413" data-name="Path 1264413" d="M57.721,76.558c-1.808-.254-2.873-1.331-2.9-2.906h1.881c.16.789.73.969,1.472.937.78-.033,1.562-.007,2.416-.007,0-.339.018-.653,0-.965a.969.969,0,0,0-1.026-.959c-.622-.018-1.246,0-1.868-.006a2.881,2.881,0,0,1-2.885-2.86c-.009-.959,0-1.918,0-2.909h2.861V64.977h1.94v1.856A2.816,2.816,0,0,1,61.909,68a12.182,12.182,0,0,1,.788,1.73H60.634c-.16-.855-.794-.985-1.567-.948-.757.036-1.517.008-2.327.008,0,.323-.009.6,0,.874A.986.986,0,0,0,57.8,70.72c.622.016,1.246,0,1.868.005a2.88,2.88,0,0,1,2.854,2.829c.012.961,0,1.923,0,2.939H59.643V78.41H57.721Z" transform="translate(-34.434 -40.824)" fill="#080806"/>
      </g>
    </g>
  </g>
</svg>
