<svg xmlns="http://www.w3.org/2000/svg" xmlns:xlink="http://www.w3.org/1999/xlink" width="98" height="98" viewBox="0 0 98 98">
  <defs>
    <filter id="Path_874925" x="0" y="0" width="98" height="98" filterUnits="userSpaceOnUse">
      <feOffset dy="3" input="SourceAlpha"/>
      <feGaussianBlur stdDeviation="3" result="blur"/>
      <feFlood flood-opacity="0.161"/>
      <feComposite operator="in" in2="blur"/>
      <feComposite in="SourceGraphic"/>
    </filter>
    <clipPath id="clip-path">
      <rect id="Rectangle_410571" data-name="Rectangle 410571" width="51" height="51" transform="translate(0 -0.199)" fill="none"/>
    </clipPath>
  </defs>
  <g id="Group_1187515" data-name="Group 1187515" transform="translate(-1013.051 -1586)">
    <g id="Group_1187468" data-name="Group 1187468" transform="translate(737.051 -4505.407)">
      <g id="Group_1181903" data-name="Group 1181903">
        <g id="Group_1181438" data-name="Group 1181438">
          <g id="Group_1111314" data-name="Group 1111314" transform="translate(-734.73 3020.407)">
            <g transform="matrix(1, 0, 0, 1, 1010.73, 3071)" filter="url(#Path_874925)">
              <g id="Path_874925-2" data-name="Path 874925" transform="translate(9 6)" fill="#f6dfb0">
                <path d="M 39.99997329711914 78.50040435791016 C 34.80184936523438 78.50040435791016 29.76000595092773 77.48268127441406 25.01450729370117 75.47550201416016 C 20.43013954162598 73.53648376464844 16.3126392364502 70.76027679443359 12.7763843536377 67.22402191162109 C 9.240128517150879 63.68776702880859 6.463928699493408 59.57027053833008 4.524906635284424 54.98590087890625 C 2.517728805541992 50.24040222167969 1.500006675720215 45.19855880737305 1.500006675720215 40.00043487548828 C 1.500006675720215 34.80185699462891 2.517728805541992 29.76001358032227 4.524906635284424 25.01451301574707 C 6.463928699493408 20.43013572692871 9.240128517150879 16.31263542175293 12.7763843536377 12.77637958526611 C 16.3126392364502 9.240124702453613 20.43013954162598 6.463935375213623 25.01450729370117 4.52490234375 C 29.76000595092773 2.517724514007568 34.80184936523438 1.500002145767212 39.99997329711914 1.500002145767212 C 45.19809722900391 1.500002145767212 50.23994064331055 2.517724514007568 54.98543930053711 4.52490234375 C 59.56981658935547 6.463935375213623 63.68731689453125 9.240124702453613 67.22357177734375 12.77637958526611 C 70.75982666015625 16.31263542175293 73.53601837158203 20.43013572692871 75.47505187988281 25.01451301574707 C 77.48223114013672 29.76001358032227 78.49995422363281 34.80185699462891 78.49995422363281 39.99998092651367 C 78.49995422363281 45.19855880737305 77.48223114013672 50.24040222167969 75.47505187988281 54.98590087890625 C 73.53601837158203 59.57027053833008 70.75982666015625 63.68776702880859 67.22357177734375 67.22402191162109 C 63.68731689453125 70.76027679443359 59.56981658935547 73.53648376464844 54.98543930053711 75.47550201416016 C 50.23994064331055 77.48268127441406 45.19809722900391 78.50040435791016 39.99997329711914 78.50040435791016 Z" stroke="none"/>
                <path d="M 39.99997329711914 3 C 35.00369262695312 3 30.15843963623047 3.977851867675781 25.59883880615234 5.906417846679688 C 21.19326782226562 7.769813537597656 17.23602676391602 10.43805694580078 13.83704376220703 13.83704376220703 C 10.43805694580078 17.23601531982422 7.769813537597656 21.19325637817383 5.906410217285156 25.59882736206055 C 3.977851867675781 30.15844345092773 3 35.00368118286133 3 40.00042724609375 C 3 44.99672317504883 3.977851867675781 49.84196472167969 5.906410217285156 54.40157318115234 C 7.769813537597656 58.80714797973633 10.43805694580078 62.76438903808594 13.83704376220703 66.16336059570312 C 17.23602676391602 69.56234741210938 21.19326782226562 72.2305908203125 25.59883880615234 74.09398651123047 C 30.15843963623047 76.02255249023438 35.00369262695312 77.00040435791016 39.99997329711914 77.00040435791016 C 44.99625396728516 77.00040435791016 49.84150695800781 76.02255249023438 54.40110778808594 74.09398651123047 C 58.80667877197266 72.2305908203125 62.76391983032227 69.56234741210938 66.16290283203125 66.16336059570312 C 69.5618896484375 62.76438903808594 72.23013305664062 58.80714797973633 74.09353637695312 54.40157318115234 C 76.0220947265625 49.84196472167969 76.99994659423828 44.99672317504883 76.99994659423828 39.99997711181641 C 76.99994659423828 35.00368118286133 76.0220947265625 30.15844345092773 74.09353637695312 25.59882736206055 C 72.23013305664062 21.19325637817383 69.5618896484375 17.23601531982422 66.16290283203125 13.83704376220703 C 62.76391983032227 10.43805694580078 58.80667877197266 7.769813537597656 54.40110778808594 5.906417846679688 C 49.84150695800781 3.977851867675781 44.99625396728516 3 39.99997329711914 3 M 39.99997329711914 0 C 62.09134674072266 0 79.99994659423828 17.90858840942383 79.99994659423828 39.99997711181641 L 79.99994659423828 40.00042724609375 C 79.99994659423828 62.09181594848633 62.09134674072266 80.00040435791016 39.99997329711914 80.00040435791016 C 17.90859985351562 80.00040435791016 0 62.09181594848633 0 40.00042724609375 L 0 39.99997711181641 C 0 17.90858840942383 17.90859985351562 0 39.99997329711914 0 Z" stroke="none" fill="#fff"/>
              </g>
            </g>
          </g>
        </g>
      </g>
    </g>
    <g id="Group_1187503" data-name="Group 1187503" transform="translate(1037.051 1607.586)">
      <g id="Group_1187502" data-name="Group 1187502" transform="translate(0 -0.387)" clip-path="url(#clip-path)">
        <path id="Path_1334413" data-name="Path 1334413" d="M66.527,38.106c0-4.737.007-9.474-.006-14.211a2.773,2.773,0,0,1,1.136-2.325c1.561-1.22,3.11-2.454,4.675-3.669a.521.521,0,0,0,.209-.718,7.868,7.868,0,1,1,15.041-4.5.723.723,0,0,0,.215.405c1.248.924,2.518,1.817,3.761,2.746,2.242,1.675,4.46,3.382,6.708,5.048a3.022,3.022,0,0,1,1.319,2.629q-.033,13.276.007,26.553a2.884,2.884,0,0,1-2.961,2.945c-1-.06-2-.005-3-.015-.253,0-.389.032-.487.326a2.923,2.923,0,0,1-2.867,2.038q-10.4,0-20.8,0a2.885,2.885,0,0,1-2.955-2.94q0-7.154,0-14.309m14.358-3.23a12.054,12.054,0,0,0,2.42-.207c2.718-.787,3.914-3.137,3.668-5.884,0-.043-.125-.076-.191-.114l-1.1,0-.195.013a8.973,8.973,0,0,0-1.881.453c-2.5,1.2-3.062,3.388-2.909,5.6,0,.049.121.09.185.135m-.178,1.692a6.387,6.387,0,0,0,.588,3.531,5.384,5.384,0,0,0,5.535,2.655c.054-.009.091-.122.135-.186.006-.262.018-.523.018-.785a5.016,5.016,0,0,0-4.473-5.259,10.03,10.03,0,0,0-1.8.044m-7.866,6c.045.064.087.183.135.185a6.312,6.312,0,0,0,3.563-.648,5.373,5.373,0,0,0,2.569-5.483c-.009-.054-.122-.091-.186-.136-.375-.005-.75-.027-1.125-.013a5.029,5.029,0,0,0-3.536,1.537,5.511,5.511,0,0,0-1.42,4.558m0-13.774c-.006.342-.024.685-.016,1.027a5.037,5.037,0,0,0,1.648,3.734,5.552,5.552,0,0,0,4.449,1.321c.064-.045.183-.088.185-.135a6.6,6.6,0,0,0-.532-3.348,5.35,5.35,0,0,0-5.6-2.784c-.055.01-.091.122-.136.186M94.068,45.928H93.31V51.4h.757c.9.005,1.8.024,2.7.011A1.2,1.2,0,0,0,98,50.158c.011-.573,0-1.147,0-1.72v-2.51Zm0-7.869h-.759v6.262h4.66V38.043H97.7l-3.632.016m0-1.607H98v-.492c0-4.159-.006-8.317.007-12.476a1.466,1.466,0,0,0-.647-1.285q-4.633-3.475-9.248-6.974a3.333,3.333,0,0,0-.316-.188l-.342,1.728c-.089.381-.545.722.015,1.148,1.577,1.2,3.117,2.448,4.681,3.665a2.769,2.769,0,0,1,1.133,2.33c-.011,3.984,0,7.967,0,11.951v.594Zm-19.419-.736c-.02-.057-.021-.078-.031-.085-.066-.047-.133-.094-.2-.137a6.588,6.588,0,0,1-2.912-3.81,13.163,13.163,0,0,1-.234-4c0-.418.345-.652.782-.655.688,0,1.377-.012,2.065,0a6.5,6.5,0,0,1,5.211,2.6c.209.265.393.551.605.853a7.11,7.11,0,0,1,2.057-2.26c1.8-1.273,3.842-1.256,5.9-1.14a.729.729,0,0,1,.669.831c0,.639,0,1.279,0,1.918a6.522,6.522,0,0,1-2.629,5.3c-.24.188-.5.353-.79.557.127.088.215.151.306.21a6.723,6.723,0,0,1,2.758,3.47,12.005,12.005,0,0,1,.331,4.33c0,.414-.356.642-.794.644-1.862.011-3.748.166-5.442-.988V53.781c2.654,0,5.275,0,7.9,0A1.387,1.387,0,0,0,91.7,52.244q0-14.113.006-28.225a1.467,1.467,0,0,0-.619-1.258c-1.336-1.031-2.654-2.083-3.98-3.127Q84.1,17.264,81.086,14.9a1.676,1.676,0,0,0-2.132-.157c-.588.405-1.136.869-1.712,1.315a3.177,3.177,0,0,0,2.075,1.43c.383.077.785.058,1.167.136a2.306,2.306,0,0,1,1.779,2.618A2.1,2.1,0,0,1,80.194,22.3a7.379,7.379,0,0,1-4.286-1.181c-.874-.581-1.646-1.317-2.512-2.024.034-.021-.038.015-.1.063q-2.356,1.852-4.711,3.707a1.358,1.358,0,0,0-.487,1.172q.008,14.088,0,28.176a1.4,1.4,0,0,0,1.583,1.563q3.687,0,7.375,0h.447V43.409c-.391.18-.741.357-1.1.5a10.811,10.811,0,0,1-4.513.387.9.9,0,0,1-.609-.635,16.786,16.786,0,0,1,.028-2.993,6.491,6.491,0,0,1,3.339-4.954M85.8,16.561a6.464,6.464,0,0,0,.32-3.014,6.276,6.276,0,0,0-12.433,1.725,6.507,6.507,0,0,0,6.16,5.458c.608.006.829-.175.843-.693.017-.586-.253-.869-.857-.879a4.844,4.844,0,0,1-4.664-4.845,4.733,4.733,0,1,1,9.388.96.542.542,0,0,0,.131.424c.327.29.689.541,1.111.864M79.9,40.975a2.8,2.8,0,0,0-.8,2.039c.049,3.39.021,6.781.021,10.172v.561h1.573v-.613c0-3.374-.029-6.749.021-10.123a2.681,2.681,0,0,0-.812-2.036M76.768,14.469c2.114-2.167,4.182-2.118,6.272-.022a3.136,3.136,0,1,0-6.272.022" transform="translate(-57.782 -5.339)" fill="#070807"/>
        <path id="Path_1334414" data-name="Path 1334414" d="M85.068,87.751a6.491,6.491,0,0,0-3.339,4.954A16.786,16.786,0,0,0,81.7,95.7a.9.9,0,0,0,.609.636,10.811,10.811,0,0,0,4.513-.387c.361-.148.711-.324,1.1-.5v10.372h-.447q-3.687,0-7.375,0a1.4,1.4,0,0,1-1.583-1.563q0-14.088,0-28.176A1.359,1.359,0,0,1,79,74.9q2.357-1.852,4.711-3.707c.062-.049.134-.085.1-.063.866.706,1.638,1.442,2.512,2.024a7.38,7.38,0,0,0,4.287,1.181,2.1,2.1,0,0,0,2.069-2.066A2.306,2.306,0,0,0,90.9,69.653c-.382-.079-.784-.06-1.167-.136a3.176,3.176,0,0,1-2.075-1.43c.576-.446,1.123-.91,1.711-1.315a1.677,1.677,0,0,1,2.132.157q3.016,2.365,6.025,4.739c1.326,1.044,2.644,2.1,3.98,3.127a1.467,1.467,0,0,1,.619,1.258q-.011,14.113-.006,28.225a1.387,1.387,0,0,1-1.512,1.536c-2.62,0-5.241,0-7.9,0V95.384c1.693,1.153,3.579,1,5.442.988.438,0,.789-.23.794-.644a12,12,0,0,0-.331-4.33,6.723,6.723,0,0,0-2.758-3.47c-.091-.058-.178-.122-.306-.21.291-.2.55-.369.79-.557a6.522,6.522,0,0,0,2.629-5.3c.007-.639,0-1.278,0-1.918a.729.729,0,0,0-.669-.831c-2.057-.116-4.1-.133-5.9,1.14a7.11,7.11,0,0,0-2.057,2.26c-.213-.3-.4-.587-.605-.853a6.5,6.5,0,0,0-5.211-2.6c-.688-.013-1.377-.006-2.065,0-.438,0-.779.237-.782.655a13.163,13.163,0,0,0,.234,4,6.587,6.587,0,0,0,2.912,3.81c.069.043.136.089.2.137.01.007.011.028.031.085" transform="translate(-68.202 -57.372)" fill="#c88f63"/>
        <path id="Path_1334415" data-name="Path 1334415" d="M225.867,72.844l.342-1.728a3.36,3.36,0,0,1,.316.188q4.623,3.488,9.248,6.974a1.466,1.466,0,0,1,.647,1.285c-.014,4.159-.007,8.317-.007,12.476v.492h-3.931q0-6.655,0-13.31a1.786,1.786,0,0,0-.631-1.52q-2.1-1.673-4.193-3.356c-.605-.489-1.193-1-1.789-1.5" transform="translate(-196.196 -61.418)" fill="#aa7855"/>
        <path id="Path_1334416" data-name="Path 1334416" d="M132.752,27.164c-.422-.323-.784-.574-1.111-.864a.543.543,0,0,1-.131-.424,4.733,4.733,0,1,0-9.388-.96,4.844,4.844,0,0,0,4.664,4.845c.6.01.873.293.857.879-.015.519-.235.7-.843.693a6.507,6.507,0,0,1-6.16-5.458,6.276,6.276,0,0,1,12.433-1.725,6.464,6.464,0,0,1-.32,3.014" transform="translate(-104.735 -15.942)" fill="#4a613a"/>
        <path id="Path_1334417" data-name="Path 1334417" d="M276.2,246.26l3.632-.016h.269v6.279h-3.9V246.26" transform="translate(-239.919 -213.539)" fill="#b9ca55"/>
        <path id="Path_1334418" data-name="Path 1334418" d="M276.215,306.268h3.931v2.51c0,.573.008,1.147,0,1.72a1.2,1.2,0,0,1-1.227,1.257c-.9.013-1.8-.006-2.7-.011v-5.476" transform="translate(-239.93 -265.679)" fill="#aa7855"/>
        <path id="Path_1334419" data-name="Path 1334419" d="M163.039,268.562a2.681,2.681,0,0,1,.812,2.036c-.05,3.374-.021,6.748-.021,10.123v.613h-1.573v-.561c0-3.391.029-6.782-.021-10.172a2.8,2.8,0,0,1,.8-2.039" transform="translate(-140.925 -232.926)" fill="#4b623a"/>
        <path id="Path_1334420" data-name="Path 1334420" d="M224.152,84.273c.6.5,1.183,1.012,1.789,1.5q2.089,1.687,4.193,3.356a1.786,1.786,0,0,1,.631,1.52q0,6.655,0,13.31h-.79v-.594c0-3.984-.007-7.967,0-11.951a2.769,2.769,0,0,0-1.133-2.33c-1.564-1.217-3.1-2.466-4.681-3.665-.56-.425-.1-.766-.015-1.148" transform="translate(-194.48 -72.846)" fill="#93684c"/>
        <path id="Path_1334421" data-name="Path 1334421" d="M114.622,174.119c.045-.064.082-.176.136-.186a5.35,5.35,0,0,1,5.6,2.784,6.6,6.6,0,0,1,.532,3.348c0,.047-.12.09-.185.135a2.589,2.589,0,0,0-.27-.393q-2.7-2.715-5.418-5.419a2.585,2.585,0,0,0-.393-.27" transform="translate(-99.565 -150.663)" fill="#b8c854"/>
        <path id="Path_1334422" data-name="Path 1334422" d="M120.7,234.4c.064.045.176.081.186.136a5.373,5.373,0,0,1-2.569,5.483,6.312,6.312,0,0,1-3.563.648c-.047,0-.09-.121-.135-.185a2.577,2.577,0,0,0,.393-.27q2.715-2.7,5.418-5.419a2.594,2.594,0,0,0,.27-.393" transform="translate(-99.565 -203.253)" fill="#b8c854"/>
        <path id="Path_1334423" data-name="Path 1334423" d="M180.6,241.022c-.045.064-.081.177-.135.186a5.384,5.384,0,0,1-5.535-2.655,6.389,6.389,0,0,1-.588-3.531,3.584,3.584,0,0,1,.461.335q2.672,2.66,5.337,5.326a3.719,3.719,0,0,0,.46.339" transform="translate(-151.419 -203.792)" fill="#b8c854"/>
        <path id="Path_1334424" data-name="Path 1334424" d="M179.279,174.91l1.1,0a2.578,2.578,0,0,1-.3.473q-2.623,2.641-5.257,5.271a3.7,3.7,0,0,0-.338.461c-.064-.045-.182-.086-.185-.135-.153-2.211.407-4.395,2.909-5.6a8.973,8.973,0,0,1,1.88-.453l.195-.013" transform="translate(-151.378 -151.573)" fill="#b8c854"/>
        <path id="Path_1334425" data-name="Path 1334425" d="M175.859,181.111a3.721,3.721,0,0,1,.338-.461q2.625-2.638,5.257-5.271a2.581,2.581,0,0,0,.3-.473c.066.038.187.071.191.114.246,2.747-.95,5.1-3.668,5.884a12.054,12.054,0,0,1-2.42.206" transform="translate(-152.757 -151.573)" fill="#aab84c"/>
        <path id="Path_1334426" data-name="Path 1334426" d="M180.762,240.51a3.72,3.72,0,0,1-.46-.339q-2.672-2.66-5.337-5.326a3.582,3.582,0,0,0-.461-.335,10.044,10.044,0,0,1,1.8-.044,5.016,5.016,0,0,1,4.473,5.259c0,.262-.012.523-.018.785" transform="translate(-151.579 -203.28)" fill="#abb94c"/>
        <path id="Path_1334427" data-name="Path 1334427" d="M114.5,175.842a2.586,2.586,0,0,1,.393.27q2.715,2.7,5.418,5.419a2.589,2.589,0,0,1,.27.393,5.552,5.552,0,0,1-4.449-1.321,5.037,5.037,0,0,1-1.648-3.734c-.008-.342.01-.685.016-1.027" transform="translate(-99.445 -152.386)" fill="#abb94c"/>
        <path id="Path_1334428" data-name="Path 1334428" d="M120.512,234.284a2.594,2.594,0,0,1-.27.393q-2.7,2.715-5.418,5.419a2.576,2.576,0,0,1-.393.27,5.511,5.511,0,0,1,1.42-4.558,5.029,5.029,0,0,1,3.536-1.537c.374-.014.75.008,1.125.013" transform="translate(-99.374 -203.136)" fill="#abb94c"/>
        <path id="Path_1334430" data-name="Path 1334430" d="M271.187,246.367v6.262h-.759v-6.262Z" transform="translate(-234.903 -213.647)" fill="#abba4d"/>
        <path id="Path_1334431" data-name="Path 1334431" d="M271.207,306.268v5.476h-.757v-5.476Z" transform="translate(-234.922 -265.679)" fill="#93684c"/>
        <path id="Path_1334432" data-name="Path 1334432" d="M211.1,174.938l-.195.013.195-.013" transform="translate(-183.202 -151.601)" fill="#aab84c"/>
      </g>
    </g>
  </g>
</svg>
