<svg xmlns="http://www.w3.org/2000/svg" xmlns:xlink="http://www.w3.org/1999/xlink" width="98" height="98" viewBox="0 0 98 98">
  <defs>
    <filter id="Path_874925" x="0" y="0" width="98" height="98" filterUnits="userSpaceOnUse">
      <feOffset dy="3" input="SourceAlpha"/>
      <feGaussianBlur stdDeviation="3" result="blur"/>
      <feFlood flood-opacity="0.161"/>
      <feComposite operator="in" in2="blur"/>
      <feComposite in="SourceGraphic"/>
    </filter>
    <clipPath id="clip-path">
      <rect id="Rectangle_410570" data-name="Rectangle 410570" width="54.411" height="50.789" fill="none"/>
    </clipPath>
  </defs>
  <g id="Group_1187467" data-name="Group 1187467" transform="translate(-276 -6091.407)">
    <g id="Group_1181903" data-name="Group 1181903">
      <g id="Group_1181438" data-name="Group 1181438">
        <g id="Group_1111314" data-name="Group 1111314" transform="translate(-734.73 3020.407)">
          <g transform="matrix(1, 0, 0, 1, 1010.73, 3071)" filter="url(#Path_874925)">
            <g id="Path_874925-2" data-name="Path 874925" transform="translate(9 6)" fill="#f6dfb0">
              <path d="M 39.99997329711914 78.50040435791016 C 34.80184936523438 78.50040435791016 29.76000595092773 77.48268127441406 25.01450729370117 75.47550201416016 C 20.43013954162598 73.53648376464844 16.3126392364502 70.76027679443359 12.7763843536377 67.22402191162109 C 9.240128517150879 63.68776702880859 6.463928699493408 59.57027053833008 4.524906635284424 54.98590087890625 C 2.517728805541992 50.24040222167969 1.500006675720215 45.19855880737305 1.500006675720215 40.00043487548828 C 1.500006675720215 34.80185699462891 2.517728805541992 29.76001358032227 4.524906635284424 25.01451301574707 C 6.463928699493408 20.43013572692871 9.240128517150879 16.31263542175293 12.7763843536377 12.77637958526611 C 16.3126392364502 9.240124702453613 20.43013954162598 6.463935375213623 25.01450729370117 4.52490234375 C 29.76000595092773 2.517724514007568 34.80184936523438 1.500002145767212 39.99997329711914 1.500002145767212 C 45.19809722900391 1.500002145767212 50.23994064331055 2.517724514007568 54.98543930053711 4.52490234375 C 59.56981658935547 6.463935375213623 63.68731689453125 9.240124702453613 67.22357177734375 12.77637958526611 C 70.75982666015625 16.31263542175293 73.53601837158203 20.43013572692871 75.47505187988281 25.01451301574707 C 77.48223114013672 29.76001358032227 78.49995422363281 34.80185699462891 78.49995422363281 39.99998092651367 C 78.49995422363281 45.19855880737305 77.48223114013672 50.24040222167969 75.47505187988281 54.98590087890625 C 73.53601837158203 59.57027053833008 70.75982666015625 63.68776702880859 67.22357177734375 67.22402191162109 C 63.68731689453125 70.76027679443359 59.56981658935547 73.53648376464844 54.98543930053711 75.47550201416016 C 50.23994064331055 77.48268127441406 45.19809722900391 78.50040435791016 39.99997329711914 78.50040435791016 Z" stroke="none"/>
              <path d="M 39.99997329711914 3 C 35.00369262695312 3 30.15843963623047 3.977851867675781 25.59883880615234 5.906417846679688 C 21.19326782226562 7.769813537597656 17.23602676391602 10.43805694580078 13.83704376220703 13.83704376220703 C 10.43805694580078 17.23601531982422 7.769813537597656 21.19325637817383 5.906410217285156 25.59882736206055 C 3.977851867675781 30.15844345092773 3 35.00368118286133 3 40.00042724609375 C 3 44.99672317504883 3.977851867675781 49.84196472167969 5.906410217285156 54.40157318115234 C 7.769813537597656 58.80714797973633 10.43805694580078 62.76438903808594 13.83704376220703 66.16336059570312 C 17.23602676391602 69.56234741210938 21.19326782226562 72.2305908203125 25.59883880615234 74.09398651123047 C 30.15843963623047 76.02255249023438 35.00369262695312 77.00040435791016 39.99997329711914 77.00040435791016 C 44.99625396728516 77.00040435791016 49.84150695800781 76.02255249023438 54.40110778808594 74.09398651123047 C 58.80667877197266 72.2305908203125 62.76391983032227 69.56234741210938 66.16290283203125 66.16336059570312 C 69.5618896484375 62.76438903808594 72.23013305664062 58.80714797973633 74.09353637695312 54.40157318115234 C 76.0220947265625 49.84196472167969 76.99994659423828 44.99672317504883 76.99994659423828 39.99997711181641 C 76.99994659423828 35.00368118286133 76.0220947265625 30.15844345092773 74.09353637695312 25.59882736206055 C 72.23013305664062 21.19325637817383 69.5618896484375 17.23601531982422 66.16290283203125 13.83704376220703 C 62.76391983032227 10.43805694580078 58.80667877197266 7.769813537597656 54.40110778808594 5.906417846679688 C 49.84150695800781 3.977851867675781 44.99625396728516 3 39.99997329711914 3 M 39.99997329711914 0 C 62.09134674072266 0 79.99994659423828 17.90858840942383 79.99994659423828 39.99997711181641 L 79.99994659423828 40.00042724609375 C 79.99994659423828 62.09181594848633 62.09134674072266 80.00040435791016 39.99997329711914 80.00040435791016 C 17.90859985351562 80.00040435791016 0 62.09181594848633 0 40.00042724609375 L 0 39.99997711181641 C 0 17.90858840942383 17.90859985351562 0 39.99997329711914 0 Z" stroke="none" fill="#fff"/>
            </g>
          </g>
        </g>
      </g>
    </g>
    <g id="Group_1187501" data-name="Group 1187501" transform="translate(297.794 6112.013)">
      <g id="Group_1187500" data-name="Group 1187500" clip-path="url(#clip-path)">
        <path id="Path_1334395" data-name="Path 1334395" d="M21.685,0c-.072.055-.139.147-.217.159C16.486.885,13.251,3.95,11.057,8.1a17.007,17.007,0,0,0-1.516,10.99,15.512,15.512,0,0,0,3.531,7.71,12.165,12.165,0,0,0-1.507.458,39.988,39.988,0,0,0-5.594,2.7c-1.623,1.077-3.1,2.568-3.136,4.723-.075,5.036-.037,10.074-.061,15.111,0,.6.252.842.839.81.267-.014.535,0,.8,0q18.415,0,36.829,0a10.151,10.151,0,0,0,8.682-4.739,9.015,9.015,0,0,0-.582-10.266,11.323,11.323,0,0,0-6-3.794,2.794,2.794,0,0,1-1.109-.57A15.687,15.687,0,0,0,37.1,27.953c-1.14-.387-2.272-.8-3.479-1.221a15.14,15.14,0,0,0,1.275-1.6c3.441-5.731,3.307-14.545-1.055-19.713A14.084,14.084,0,0,0,28.59,1.186C27.459.714,26.264.391,25.1,0" transform="translate(0.2)" fill="#fffefe"/>
        <path id="Path_1334396" data-name="Path 1334396" d="M30.122,0c1.166.391,2.362.714,3.492,1.186a14.081,14.081,0,0,1,5.257,4.235c4.362,5.168,4.5,13.982,1.054,19.713a15.218,15.218,0,0,1-1.275,1.6c1.207.424,2.339.834,3.479,1.221a15.679,15.679,0,0,1,5.133,3.268,2.79,2.79,0,0,0,1.109.57,11.324,11.324,0,0,1,6,3.794,9.015,9.015,0,0,1,.582,10.266,10.15,10.15,0,0,1-8.682,4.739q-18.414.012-36.829,0c-.268,0-.536-.012-.8,0-.587.032-.842-.206-.839-.81.024-5.037-.014-10.075.061-15.111C7.892,32.52,9.373,31.029,11,29.952a39.986,39.986,0,0,1,5.594-2.7A12.162,12.162,0,0,1,18.1,26.8a15.512,15.512,0,0,1-3.531-7.71A17.005,17.005,0,0,1,16.082,8.1C18.276,3.95,21.51.885,26.491.159c.079-.012.145-.1.217-.159ZM33.4,25.829c1.22.214,2.421.442,3.63.618a.752.752,0,0,0,.56-.328,22.881,22.881,0,0,0,2.263-3.671,16.693,16.693,0,0,0,1.166-8.382A14.691,14.691,0,0,0,34.866,3.3a10.684,10.684,0,0,0-9.671-1.6c-4.759,1.42-7.272,4.928-8.9,9.226a15.968,15.968,0,0,0-.7,6.2c.1,3.249,1.5,5.976,3.2,8.626a1.143,1.143,0,0,0,1.557.581,14.225,14.225,0,0,1,1.77-.265c.393-.083,1.077-.272,1.082-.431a2.047,2.047,0,0,0-.424-1.366,12.356,12.356,0,0,1-3.7-9.732,1.211,1.211,0,0,1,.668-.874,13.973,13.973,0,0,0,7.607-5.414c.731-1.024,1.09-1.007,1.849,0a14.022,14.022,0,0,0,6.906,5.129c1.018.332,1.022.99,1,1.758a12.532,12.532,0,0,1-3.121,8.288,2.712,2.712,0,0,0-.6,2.4M19.838,49.346H36.869c.012-1.784.542-3.48-.318-5.227a6.912,6.912,0,0,1-.211-5.381c.427-1.247,1.012-2.441,1.53-3.666-2.5-1.312-6.62-1.048-8.734,1.161a.975.975,0,0,1-1.553.024c-2.108-2-4.625-2.273-7.348-1.713-1.512.311-1.683.605-1.519,2.131.228,2.122.383,4.251.57,6.376.184,2.092.368,4.184.554,6.295M16.887,28.278c-1.382.646-2.522,1.164-3.649,1.707a6.493,6.493,0,0,0-4.04,6.6c.131,3.91.031,7.827.031,11.742v1.028h9.442c-.591-6.976-1.177-13.9-1.784-21.074M28.066,8.937A5.854,5.854,0,0,1,27.523,10a15.244,15.244,0,0,1-6.243,4.426,1.46,1.46,0,0,0-.878,2.118,3.568,3.568,0,0,1,.279.775A10.776,10.776,0,0,0,23.7,23.28a6.162,6.162,0,0,0,8.457.279c2.565-2.45,3.382-5.611,3.667-8.929a18.125,18.125,0,0,1-7.754-5.693m27,31.736a8.194,8.194,0,0,0-2.42-5.152c-2.117-2.316-4.878-2.843-7.948-2.56-4.936.455-8.88,5.411-7.145,10.6C38.7,47,41.319,48.8,44.81,49.305c5.09.732,9.841-2.687,10.251-8.632M23.225,27.155l-5.191.9c.166,1.947.325,3.8.487,5.711,3.356-1.1,6.555-1.075,9.48,1.169.171.132.641-.01.919-.135.987-.444,1.916-1.037,2.932-1.389a9.725,9.725,0,0,1,6.286.358c.159-1.905.315-3.763.481-5.739l-5.155-.872c-.608,4.186-2.147,5.725-5.507,5.643-2.619-.064-4.463-2.2-4.734-5.65M24.7,25.427c0,.987-.036,1.809.007,2.627a3.556,3.556,0,0,0,3.228,3.537,3.812,3.812,0,0,0,4.025-2.635,25.281,25.281,0,0,0,.231-3.951,7.375,7.375,0,0,1-7.491.422m15.254,3.022c-.154,1.859-.295,3.557-.457,5.516a10.84,10.84,0,0,1,6.165-2.412c-1.649-1.643-3.657-2.3-5.708-3.1m1.069,20.916L38.2,47.317c-.076.679-.149,1.341-.227,2.048Z" transform="translate(-4.824)" fill="#0f0c0e"/>
        <path id="Path_1334397" data-name="Path 1334397" d="M46,27.79a2.711,2.711,0,0,1,.6-2.4A12.535,12.535,0,0,0,49.719,17.1c.025-.768.021-1.426-1-1.758a14.018,14.018,0,0,1-6.906-5.128c-.758-1.01-1.118-1.027-1.848,0a13.97,13.97,0,0,1-7.607,5.414,1.211,1.211,0,0,0-.668.874,12.357,12.357,0,0,0,3.7,9.732,2.043,2.043,0,0,1,.424,1.366c0,.159-.688.347-1.082.431a14.226,14.226,0,0,0-1.77.265,1.142,1.142,0,0,1-1.557-.581c-1.705-2.65-3.106-5.377-3.2-8.626a15.973,15.973,0,0,1,.7-6.2c1.624-4.3,4.137-7.807,8.9-9.226a10.683,10.683,0,0,1,9.671,1.6A14.69,14.69,0,0,1,53.62,16.027a16.688,16.688,0,0,1-1.166,8.382,22.854,22.854,0,0,1-2.263,3.671.75.75,0,0,1-.56.328c-1.209-.176-2.41-.4-3.63-.618" transform="translate(-17.427 -1.961)" fill="#545454"/>
        <path id="Path_1334398" data-name="Path 1334398" d="M37.449,106.226c-.185-2.111-.37-4.2-.554-6.295-.187-2.126-.341-4.255-.57-6.376-.164-1.526.008-1.82,1.52-2.131,2.722-.56,5.24-.289,7.348,1.713a.975.975,0,0,0,1.553-.024c2.114-2.21,6.239-2.474,8.734-1.162-.518,1.225-1.1,2.42-1.53,3.666A6.912,6.912,0,0,0,54.162,101c.86,1.747.331,3.443.319,5.227Z" transform="translate(-22.435 -56.88)" fill="#f4c9de"/>
        <path id="Path_1334399" data-name="Path 1334399" d="M19.144,75.2c.607,7.175,1.193,14.1,1.784,21.074H11.486V95.246c0-3.914.1-7.832-.032-11.742a6.494,6.494,0,0,1,4.04-6.6c1.127-.543,2.266-1.061,3.649-1.706" transform="translate(-7.081 -46.923)" fill="#e14f8d"/>
        <path id="Path_1334400" data-name="Path 1334400" d="M48.2,23.767a18.128,18.128,0,0,0,7.754,5.693c-.285,3.318-1.1,6.479-3.667,8.929a6.162,6.162,0,0,1-8.457-.279,10.776,10.776,0,0,1-3.013-5.96,3.545,3.545,0,0,0-.279-.774,1.46,1.46,0,0,1,.878-2.118,15.248,15.248,0,0,0,6.243-4.426,5.83,5.83,0,0,0,.543-1.065" transform="translate(-24.958 -14.83)" fill="#f8b38f"/>
        <path id="Path_1334401" data-name="Path 1334401" d="M102.61,95.253c-.409,5.945-5.16,9.364-10.251,8.632-3.491-.5-6.112-2.3-7.262-5.742a8.2,8.2,0,0,1,7.146-10.6c3.069-.283,5.831.244,7.948,2.56a8.194,8.194,0,0,1,2.42,5.152M86.449,93.189c.163.3.249.7.5.889a33.615,33.615,0,0,1,3.428,2.554c1.68,1.6,3.8,2.75,5.608,4.232,2.3,1.877,2.137,1.386,3.921-.268a1.1,1.1,0,0,0,.088-1.811c-1.482-1.674-2.948-3.364-4.368-5.089-1.087-1.319-2.647-2.184-3.41-3.848a1.565,1.565,0,0,0-2.516-.241c-1.025.884-1.973,1.857-2.927,2.818a2.417,2.417,0,0,0-.323.764" transform="translate(-52.373 -54.58)" fill="#214f7c"/>
        <path id="Path_1334402" data-name="Path 1334402" d="M39.814,72.215c.27,3.455,2.114,5.587,4.734,5.651,3.36.082,4.9-1.457,5.507-5.643l5.154.872c-.165,1.976-.321,3.834-.481,5.739a9.725,9.725,0,0,0-6.286-.358c-1.016.352-1.945.945-2.932,1.389-.279.126-.748.267-.92.135-2.925-2.244-6.124-2.267-9.479-1.169-.163-1.906-.321-3.764-.487-5.711l5.191-.905" transform="translate(-21.413 -45.06)" fill="#df4f8d"/>
        <path id="Path_1334403" data-name="Path 1334403" d="M52.082,66.921a7.376,7.376,0,0,0,7.491-.422,25.23,25.23,0,0,1-.231,3.95,3.812,3.812,0,0,1-4.024,2.636,3.556,3.556,0,0,1-3.228-3.537c-.043-.818-.007-1.639-.007-2.627" transform="translate(-32.202 -41.493)" fill="#f29b7e"/>
        <path id="Path_1334404" data-name="Path 1334404" d="M91.344,75.657c2.051.8,4.059,1.461,5.708,3.1a10.838,10.838,0,0,0-6.165,2.413c.162-1.959.3-3.658.457-5.516" transform="translate(-56.211 -47.208)" fill="#de508d"/>
        <path id="Path_1334405" data-name="Path 1334405" d="M89.943,127.881H86.894c.079-.707.152-1.369.227-2.048l2.822,2.048" transform="translate(-53.741 -78.516)" fill="#de528e"/>
        <path id="Path_1334406" data-name="Path 1334406" d="M89.315,95.886a2.417,2.417,0,0,1,.322-.764c.954-.961,1.9-1.934,2.927-2.818a1.565,1.565,0,0,1,2.516.241c.763,1.664,2.324,2.529,3.41,3.848,1.421,1.725,2.887,3.414,4.368,5.088a1.1,1.1,0,0,1-.088,1.811c-1.783,1.654-1.625,2.145-3.921.268-1.812-1.482-3.928-2.63-5.608-4.232a33.563,33.563,0,0,0-3.428-2.554c-.251-.186-.337-.587-.5-.889m3.3,1.216c.548-.431,1.083-.8,1.552-1.234,1.045-.972,1.039-1.215.195-2.362-.378-.514-.747-.606-1.219-.137-.659.653-1.344,1.281-1.974,1.96-.156.168-.269.649-.182.718A17.57,17.57,0,0,0,92.618,97.1m3.6,3.095,2.277-1.975a6.065,6.065,0,0,0-.811-1,.771.771,0,0,0-.723-.045c-.743.576-1.436,1.214-2.164,1.846l1.42,1.171m3.088,2.246,1.36,1.1,1.51-1.214-1.426-1.314L99.3,102.444m.679-2.416-.761-.924-1.929,1.8,1.1.818,1.594-1.693m-3.563-4.159a4.088,4.088,0,0,0-2.508,2.375l2.508-2.375" transform="translate(-55.239 -57.276)" fill="#09090b"/>
        <path id="Path_1334407" data-name="Path 1334407" d="M95.286,99.213a17.566,17.566,0,0,1-1.627-1.054c-.087-.069.026-.55.182-.719.63-.679,1.316-1.306,1.974-1.96.472-.469.841-.376,1.219.137.844,1.147.85,1.39-.195,2.361-.469.436-1,.8-1.552,1.234" transform="translate(-57.907 -59.387)" fill="#c3deed"/>
        <path id="Path_1334408" data-name="Path 1334408" d="M105.1,109.019l-1.42-1.171c.728-.632,1.421-1.27,2.164-1.846a.771.771,0,0,1,.723.045,6.05,6.05,0,0,1,.811,1l-2.277,1.974" transform="translate(-64.122 -66.098)" fill="#7998cc"/>
        <path id="Path_1334409" data-name="Path 1334409" d="M115.5,117.746l1.444-1.428,1.426,1.313-1.51,1.214-1.36-1.1" transform="translate(-71.431 -72.579)" fill="#7592c3"/>
        <path id="Path_1334410" data-name="Path 1334410" d="M112.916,112.159l-1.594,1.693-1.1-.818,1.929-1.8.761.924" transform="translate(-68.172 -69.407)" fill="#7a99cc"/>
        <path id="Path_1334411" data-name="Path 1334411" d="M103.873,102.631l-2.508,2.375a4.088,4.088,0,0,1,2.508-2.375" transform="translate(-62.691 -64.039)" fill="#738ebc"/>
      </g>
    </g>
  </g>
</svg>
